%FSLAX24Y24*%
%MOIN*%
G70*
G01*
G75*
G04 Layer_Color=16711935*
%ADD10C,0.0100*%
%ADD11C,0.0150*%
%ADD12R,0.0650X0.0098*%
%ADD13R,0.0098X0.0650*%
G04:AMPARAMS|DCode=14|XSize=39.4mil|YSize=98.4mil|CornerRadius=0mil|HoleSize=0mil|Usage=FLASHONLY|Rotation=225.000|XOffset=0mil|YOffset=0mil|HoleType=Round|Shape=Rectangle|*
%AMROTATEDRECTD14*
4,1,4,-0.0209,0.0487,0.0487,-0.0209,0.0209,-0.0487,-0.0487,0.0209,-0.0209,0.0487,0.0*
%
%ADD14ROTATEDRECTD14*%

G04:AMPARAMS|DCode=15|XSize=39.4mil|YSize=98.4mil|CornerRadius=0mil|HoleSize=0mil|Usage=FLASHONLY|Rotation=135.000|XOffset=0mil|YOffset=0mil|HoleType=Round|Shape=Rectangle|*
%AMROTATEDRECTD15*
4,1,4,0.0487,0.0209,-0.0209,-0.0487,-0.0487,-0.0209,0.0209,0.0487,0.0487,0.0209,0.0*
%
%ADD15ROTATEDRECTD15*%

%ADD16R,0.0300X0.0300*%
%ADD17R,0.0600X0.0500*%
%ADD18C,0.1969*%
%ADD19R,0.0300X0.0300*%
%ADD20R,0.0157X0.0532*%
%ADD21R,0.0591X0.0984*%
%ADD22R,0.1000X0.0500*%
%ADD23R,0.0300X0.0394*%
%ADD24R,0.1000X0.1400*%
%ADD25R,0.0360X0.0360*%
%ADD26R,0.0500X0.0360*%
%ADD27R,0.0800X0.0400*%
%ADD28R,0.0900X0.1200*%
%ADD29R,0.0591X0.0394*%
%ADD30R,0.0591X0.0394*%
%ADD31C,0.0394*%
%ADD32C,0.0315*%
%ADD33R,0.1500X0.0500*%
%ADD34R,0.0400X0.0400*%
%ADD35R,0.0360X0.0500*%
%ADD36R,0.0360X0.0360*%
%ADD37R,0.0400X0.0400*%
%ADD38R,0.0394X0.0630*%
%ADD39R,0.0472X0.0591*%
%ADD40R,0.0600X0.0200*%
%ADD41R,0.0500X0.0600*%
%ADD42C,0.0050*%
%ADD43C,0.0080*%
%ADD44C,0.0120*%
%ADD45C,0.0200*%
%ADD46C,0.0300*%
%ADD47C,0.0600*%
%ADD48C,0.1260*%
%ADD49C,0.0620*%
%ADD50C,0.0394*%
%ADD51C,0.0500*%
%ADD52O,0.0500X0.1969*%
%ADD53C,0.1200*%
%ADD54C,0.1000*%
%ADD55C,0.1250*%
%ADD56C,0.0200*%
%ADD57C,0.0250*%
%ADD58C,0.0060*%
%ADD59C,0.0040*%
%ADD60C,0.0010*%
%ADD61C,0.0070*%
%ADD62R,0.0050X0.0700*%
%ADD63R,0.1487X0.0100*%
%ADD64R,0.0891X0.0694*%
%ADD65R,0.0891X0.0694*%
%ADD66R,0.0730X0.0178*%
%ADD67R,0.0178X0.0730*%
G04:AMPARAMS|DCode=68|XSize=47.4mil|YSize=106.4mil|CornerRadius=0mil|HoleSize=0mil|Usage=FLASHONLY|Rotation=225.000|XOffset=0mil|YOffset=0mil|HoleType=Round|Shape=Rectangle|*
%AMROTATEDRECTD68*
4,1,4,-0.0209,0.0544,0.0544,-0.0209,0.0209,-0.0544,-0.0544,0.0209,-0.0209,0.0544,0.0*
%
%ADD68ROTATEDRECTD68*%

G04:AMPARAMS|DCode=69|XSize=47.4mil|YSize=106.4mil|CornerRadius=0mil|HoleSize=0mil|Usage=FLASHONLY|Rotation=135.000|XOffset=0mil|YOffset=0mil|HoleType=Round|Shape=Rectangle|*
%AMROTATEDRECTD69*
4,1,4,0.0544,0.0209,-0.0209,-0.0544,-0.0544,-0.0209,0.0209,0.0544,0.0544,0.0209,0.0*
%
%ADD69ROTATEDRECTD69*%

%ADD70R,0.0380X0.0380*%
%ADD71R,0.0680X0.0580*%
%ADD72C,0.2049*%
%ADD73R,0.0380X0.0380*%
%ADD74R,0.0237X0.0612*%
%ADD75R,0.0671X0.1064*%
%ADD76R,0.1080X0.0580*%
%ADD77R,0.0380X0.0474*%
%ADD78R,0.0528X0.0928*%
%ADD79R,0.0440X0.0440*%
%ADD80R,0.0580X0.0440*%
%ADD81R,0.0880X0.0480*%
%ADD82R,0.0980X0.1280*%
%ADD83C,0.0474*%
%ADD84C,0.0395*%
%ADD85R,0.1264X0.0264*%
%ADD86R,0.0480X0.0480*%
%ADD87R,0.0440X0.0580*%
%ADD88R,0.0440X0.0440*%
%ADD89R,0.0480X0.0480*%
%ADD90R,0.0474X0.0710*%
%ADD91R,0.0552X0.0671*%
%ADD92R,0.0680X0.0280*%
%ADD93R,0.0580X0.0680*%
%ADD94C,0.0680*%
%ADD95C,0.1340*%
%ADD96C,0.0700*%
%ADD97C,0.0474*%
%ADD98C,0.0580*%
%ADD99O,0.0580X0.2049*%
%ADD100C,0.1280*%
%ADD101C,0.1080*%
%ADD102C,0.1330*%
D83*
X-37671Y22526D02*
D03*
X-32750D02*
D03*
X-37671Y22250D02*
D03*
X-32750D02*
D03*
D94*
X-27500Y15500D02*
D03*
X-25500D02*
D03*
X-60755Y16751D02*
D03*
Y6751D02*
D03*
X-61755Y19751D02*
D03*
X-60755D02*
D03*
Y5751D02*
D03*
Y17751D02*
D03*
Y15751D02*
D03*
Y18751D02*
D03*
X-61755Y5751D02*
D03*
X-60755Y7751D02*
D03*
X-61755D02*
D03*
Y6751D02*
D03*
Y15751D02*
D03*
Y17751D02*
D03*
Y16751D02*
D03*
Y18751D02*
D03*
X-27500Y17500D02*
D03*
X-25500D02*
D03*
X-26500D02*
D03*
X-13250Y21000D02*
D03*
X-14250D02*
D03*
X-43600Y5254D02*
D03*
X-49860Y10017D02*
D03*
X-9750Y14750D02*
D03*
X-8750Y6750D02*
D03*
Y9750D02*
D03*
X-9750D02*
D03*
Y13750D02*
D03*
Y11750D02*
D03*
Y8750D02*
D03*
Y16750D02*
D03*
X-8750D02*
D03*
X-9750Y12750D02*
D03*
Y7750D02*
D03*
Y6750D02*
D03*
X-8750Y8750D02*
D03*
X-9750Y5750D02*
D03*
X-8750Y13750D02*
D03*
Y12750D02*
D03*
Y17750D02*
D03*
Y5750D02*
D03*
Y10750D02*
D03*
Y7750D02*
D03*
X-9750Y15750D02*
D03*
X-17250Y2000D02*
D03*
X-18250D02*
D03*
X-20250D02*
D03*
X-21250D02*
D03*
X-63750Y21750D02*
D03*
X-64750D02*
D03*
X-19250Y2000D02*
D03*
X-63750Y12750D02*
D03*
X-64750D02*
D03*
X-63750Y13750D02*
D03*
X-64750D02*
D03*
X-63750Y14750D02*
D03*
Y15750D02*
D03*
X-64750D02*
D03*
X-63750Y16750D02*
D03*
X-64750D02*
D03*
X-63750Y17750D02*
D03*
Y18750D02*
D03*
X-64750D02*
D03*
X-63750Y19750D02*
D03*
X-64750D02*
D03*
X-63750Y20750D02*
D03*
X-64750D02*
D03*
X-2750Y9000D02*
D03*
Y8000D02*
D03*
Y14000D02*
D03*
Y13000D02*
D03*
Y15000D02*
D03*
Y12000D02*
D03*
X-10250Y2000D02*
D03*
X-13250D02*
D03*
X-12250D02*
D03*
X-14250D02*
D03*
X-11250D02*
D03*
X-2750Y11000D02*
D03*
X-49750Y12500D02*
D03*
X-64750Y17750D02*
D03*
X-2750Y6000D02*
D03*
Y7000D02*
D03*
X-49750Y13500D02*
D03*
X-8750Y11750D02*
D03*
X-64750Y14750D02*
D03*
X-8750D02*
D03*
X-9750Y10750D02*
D03*
X-26500Y15500D02*
D03*
X-8750Y15750D02*
D03*
X-25500Y21500D02*
D03*
X-27500D02*
D03*
X-26500D02*
D03*
X-25500Y13500D02*
D03*
X-27500D02*
D03*
X-26500D02*
D03*
X-59500Y2500D02*
D03*
X-58500D02*
D03*
X-26500Y19500D02*
D03*
X-25500D02*
D03*
X-15750Y4750D02*
D03*
X-20750Y17750D02*
D03*
X-16750D02*
D03*
X-21750Y6750D02*
D03*
Y13750D02*
D03*
Y17750D02*
D03*
X-15750Y5750D02*
D03*
X-20750Y18750D02*
D03*
X-16750D02*
D03*
X-22750Y5750D02*
D03*
Y12750D02*
D03*
X-11750Y4750D02*
D03*
X-12750Y5750D02*
D03*
X-21750Y16750D02*
D03*
X-22750D02*
D03*
X-11750Y18750D02*
D03*
X-21750Y5750D02*
D03*
X-18750D02*
D03*
X-22750Y17750D02*
D03*
X-21750Y18750D02*
D03*
X-14750Y17750D02*
D03*
X-15750Y18750D02*
D03*
X-13750Y5750D02*
D03*
X-22750Y10750D02*
D03*
X-21750Y4750D02*
D03*
X-18750Y17750D02*
D03*
X-19750Y18750D02*
D03*
X-9750Y17750D02*
D03*
X-13750Y18750D02*
D03*
X-11750Y17750D02*
D03*
X-12750Y18750D02*
D03*
X-18750Y4750D02*
D03*
X-13750Y17750D02*
D03*
X-14750Y18750D02*
D03*
X-11750Y5750D02*
D03*
X-10750Y4750D02*
D03*
X-12750D02*
D03*
X-9750D02*
D03*
X-10750Y5750D02*
D03*
X-21750Y11750D02*
D03*
X-22750Y7750D02*
D03*
Y14750D02*
D03*
X-21750D02*
D03*
X-22750Y13750D02*
D03*
X-21750Y15750D02*
D03*
Y7750D02*
D03*
X-22750Y6750D02*
D03*
X-21750Y8750D02*
D03*
X-22750Y15750D02*
D03*
X-10750Y18750D02*
D03*
Y17750D02*
D03*
X-15750D02*
D03*
X-17750Y18750D02*
D03*
Y17750D02*
D03*
X-19750D02*
D03*
X-14750Y5750D02*
D03*
Y4750D02*
D03*
X-13750D02*
D03*
X-21750Y12750D02*
D03*
X-12750Y17750D02*
D03*
X-21750Y9750D02*
D03*
X-22750Y11750D02*
D03*
Y8750D02*
D03*
X-9750Y18750D02*
D03*
X-18750D02*
D03*
X-20750Y4750D02*
D03*
Y5750D02*
D03*
X-19750Y4750D02*
D03*
Y5750D02*
D03*
X-17750Y4750D02*
D03*
Y5750D02*
D03*
X-16750Y4750D02*
D03*
Y5750D02*
D03*
X-7000Y9250D02*
D03*
Y10250D02*
D03*
X-27500Y5750D02*
D03*
X-26500D02*
D03*
X-27500Y11750D02*
D03*
X-25500D02*
D03*
X-27500Y9750D02*
D03*
Y7750D02*
D03*
Y8750D02*
D03*
X-26500Y11750D02*
D03*
X-5500Y10250D02*
D03*
Y9250D02*
D03*
X-4000Y10250D02*
D03*
Y9250D02*
D03*
X-21750Y10750D02*
D03*
X-22750Y9750D02*
D03*
X-27500Y19500D02*
D03*
D95*
X-30755Y22501D02*
D03*
Y5001D02*
D03*
D03*
Y22501D02*
D03*
D96*
X-46750Y24500D02*
D03*
Y23500D02*
D03*
X-45750Y24500D02*
D03*
Y23500D02*
D03*
X-18250Y24500D02*
D03*
X-17250Y23500D02*
D03*
Y24500D02*
D03*
X-18250Y23500D02*
D03*
X-19250Y24500D02*
D03*
X-21250Y23500D02*
D03*
X-54750Y24500D02*
D03*
X-22250D02*
D03*
X-51750Y23500D02*
D03*
X-21250Y24500D02*
D03*
X-44750Y23500D02*
D03*
X-15250D02*
D03*
Y24500D02*
D03*
X-43750Y23500D02*
D03*
X-19250D02*
D03*
X-16250D02*
D03*
X-42750Y24500D02*
D03*
Y23500D02*
D03*
X-14250D02*
D03*
X-10250Y24500D02*
D03*
X-14250D02*
D03*
X-51750D02*
D03*
X-12250D02*
D03*
Y23500D02*
D03*
X-11250Y24500D02*
D03*
Y23500D02*
D03*
X-13250Y24500D02*
D03*
X-55750Y23500D02*
D03*
Y24500D02*
D03*
X-49750D02*
D03*
X-56750D02*
D03*
X-57750D02*
D03*
X-49750Y23500D02*
D03*
X-56750D02*
D03*
X-57750D02*
D03*
X-50750D02*
D03*
Y24500D02*
D03*
X-44750D02*
D03*
X-23250Y23500D02*
D03*
X-13250D02*
D03*
X-22250D02*
D03*
X-48750D02*
D03*
Y24500D02*
D03*
X-16250D02*
D03*
X-10250Y23500D02*
D03*
X-54750D02*
D03*
X-47750Y24500D02*
D03*
Y23500D02*
D03*
X-20250Y24500D02*
D03*
X-53750D02*
D03*
Y23500D02*
D03*
X-52750Y24500D02*
D03*
X-8250D02*
D03*
Y23500D02*
D03*
X-9250D02*
D03*
Y24500D02*
D03*
X-20250Y23500D02*
D03*
X-43750Y24500D02*
D03*
X-23250D02*
D03*
X-52750Y23500D02*
D03*
D97*
X-37671Y22388D02*
D03*
X-32750D02*
D03*
X-28293Y1878D02*
D03*
X-26207D02*
D03*
X-28766Y590D02*
D03*
Y730D02*
D03*
Y881D02*
D03*
X-25734Y590D02*
D03*
Y730D02*
D03*
Y881D02*
D03*
X-26350Y1878D02*
D03*
X-26050D02*
D03*
X-28150D02*
D03*
X-28450D02*
D03*
D98*
X-38750Y8000D02*
D03*
X-31250D02*
D03*
D99*
Y8100D02*
D03*
Y7900D02*
D03*
X-38750Y8100D02*
D03*
Y7900D02*
D03*
D100*
X-63250Y2750D02*
D03*
X-2750D02*
D03*
D101*
X-6222Y25500D02*
D03*
X-25278D02*
D03*
X-40722D02*
D03*
X-59778D02*
D03*
X-64000Y7000D02*
D03*
Y9000D02*
D03*
D102*
X-30755Y22501D02*
D03*
Y5001D02*
D03*
M02*
