%FSLAX24Y24*%
%MOIN*%
G70*
G01*
G75*
%ADD10C,0.0100*%
%ADD11C,0.0150*%
%ADD12R,0.0650X0.0098*%
%ADD13R,0.0098X0.0650*%
G04:AMPARAMS|DCode=14|XSize=39.4mil|YSize=98.4mil|CornerRadius=0mil|HoleSize=0mil|Usage=FLASHONLY|Rotation=225.000|XOffset=0mil|YOffset=0mil|HoleType=Round|Shape=Rectangle|*
%AMROTATEDRECTD14*
4,1,4,-0.0209,0.0487,0.0487,-0.0209,0.0209,-0.0487,-0.0487,0.0209,-0.0209,0.0487,0.0*
%
%ADD14ROTATEDRECTD14*%

G04:AMPARAMS|DCode=15|XSize=39.4mil|YSize=98.4mil|CornerRadius=0mil|HoleSize=0mil|Usage=FLASHONLY|Rotation=135.000|XOffset=0mil|YOffset=0mil|HoleType=Round|Shape=Rectangle|*
%AMROTATEDRECTD15*
4,1,4,0.0487,0.0209,-0.0209,-0.0487,-0.0487,-0.0209,0.0209,0.0487,0.0487,0.0209,0.0*
%
%ADD15ROTATEDRECTD15*%

%ADD16R,0.0300X0.0300*%
%ADD17R,0.0600X0.0500*%
%ADD18C,0.1969*%
%ADD19R,0.0300X0.0300*%
%ADD20R,0.0157X0.0532*%
%ADD21R,0.0591X0.0984*%
%ADD22R,0.1000X0.0500*%
%ADD23R,0.0300X0.0394*%
%ADD24R,0.1000X0.1400*%
%ADD25R,0.0360X0.0360*%
%ADD26R,0.0500X0.0360*%
%ADD27R,0.0800X0.0400*%
%ADD28R,0.0900X0.1200*%
%ADD29R,0.0591X0.0394*%
%ADD30R,0.0591X0.0394*%
%ADD31C,0.0394*%
%ADD32C,0.0315*%
%ADD33R,0.1500X0.0500*%
%ADD34R,0.0400X0.0400*%
%ADD35R,0.0360X0.0500*%
%ADD36R,0.0360X0.0360*%
%ADD37R,0.0400X0.0400*%
%ADD38R,0.0394X0.0630*%
%ADD39R,0.0472X0.0591*%
%ADD40R,0.0600X0.0200*%
%ADD41R,0.0500X0.0600*%
%ADD42C,0.0050*%
%ADD43C,0.0080*%
%ADD44C,0.0120*%
%ADD45C,0.0200*%
%ADD46C,0.0300*%
%ADD47C,0.0600*%
%ADD48C,0.1260*%
%ADD49C,0.0620*%
%ADD50C,0.0394*%
%ADD51C,0.0500*%
%ADD52O,0.0500X0.1969*%
%ADD53C,0.1200*%
%ADD54C,0.1000*%
%ADD55C,0.1250*%
%ADD56C,0.0200*%
%ADD57C,0.0250*%
D12*
X-18791Y10963D02*
D03*
Y11159D02*
D03*
Y9388D02*
D03*
Y9585D02*
D03*
Y9782D02*
D03*
Y9978D02*
D03*
Y10175D02*
D03*
Y10372D02*
D03*
Y10569D02*
D03*
Y10766D02*
D03*
Y11356D02*
D03*
Y11553D02*
D03*
Y11750D02*
D03*
Y11947D02*
D03*
Y12144D02*
D03*
Y12341D02*
D03*
Y12537D02*
D03*
Y12734D02*
D03*
Y12931D02*
D03*
Y13128D02*
D03*
Y13325D02*
D03*
Y13522D02*
D03*
Y13719D02*
D03*
Y13915D02*
D03*
Y14112D02*
D03*
X-12709D02*
D03*
Y13915D02*
D03*
Y13719D02*
D03*
Y13522D02*
D03*
Y13325D02*
D03*
Y13128D02*
D03*
Y12931D02*
D03*
Y12734D02*
D03*
Y12537D02*
D03*
Y12341D02*
D03*
Y12144D02*
D03*
Y11947D02*
D03*
Y11750D02*
D03*
Y11553D02*
D03*
Y11356D02*
D03*
Y11159D02*
D03*
Y10963D02*
D03*
Y10766D02*
D03*
Y10569D02*
D03*
Y10372D02*
D03*
Y10175D02*
D03*
Y9978D02*
D03*
Y9782D02*
D03*
Y9585D02*
D03*
Y9388D02*
D03*
D13*
X-13388Y8709D02*
D03*
X-13585D02*
D03*
X-13781D02*
D03*
X-13978D02*
D03*
X-14175D02*
D03*
X-14372D02*
D03*
X-14569D02*
D03*
X-14766D02*
D03*
X-14963D02*
D03*
X-15159D02*
D03*
X-15356D02*
D03*
X-15553D02*
D03*
X-15750D02*
D03*
X-15947D02*
D03*
X-16144D02*
D03*
X-16341D02*
D03*
X-16537D02*
D03*
X-16734D02*
D03*
X-16931D02*
D03*
X-17128D02*
D03*
X-17325D02*
D03*
X-17522D02*
D03*
X-17718D02*
D03*
X-17915D02*
D03*
X-18112D02*
D03*
Y14791D02*
D03*
X-17915D02*
D03*
X-17718D02*
D03*
X-17522D02*
D03*
X-17325D02*
D03*
X-17128D02*
D03*
X-16931D02*
D03*
X-16734D02*
D03*
X-16537D02*
D03*
X-16341D02*
D03*
X-16144D02*
D03*
X-15947D02*
D03*
X-15750D02*
D03*
X-15553D02*
D03*
X-15356D02*
D03*
X-15159D02*
D03*
X-14963D02*
D03*
X-14766D02*
D03*
X-14569D02*
D03*
X-14372D02*
D03*
X-14175D02*
D03*
X-13978D02*
D03*
X-13781D02*
D03*
X-13585D02*
D03*
X-13388D02*
D03*
D14*
X-18939Y8561D02*
D03*
X-12561Y14939D02*
D03*
D15*
X-18939D02*
D03*
X-12561Y8561D02*
D03*
D16*
X-58475Y10750D02*
D03*
X-59025D02*
D03*
X-26025Y10250D02*
D03*
Y9250D02*
D03*
X-37225Y17000D02*
D03*
X-37775D02*
D03*
X-34275Y17250D02*
D03*
X-37775Y18000D02*
D03*
X-37225D02*
D03*
X-40275Y9250D02*
D03*
X-11780Y13995D02*
D03*
X-11230D02*
D03*
X-21775Y20250D02*
D03*
X-21225D02*
D03*
X-40275Y7250D02*
D03*
Y8250D02*
D03*
X-11775Y15000D02*
D03*
X-11225D02*
D03*
X-37775Y19000D02*
D03*
X-37225D02*
D03*
X-17725Y20250D02*
D03*
X-18275D02*
D03*
X-16020Y7005D02*
D03*
X-15470D02*
D03*
X-18225Y16250D02*
D03*
X-18775D02*
D03*
X-15970Y16255D02*
D03*
X-16520D02*
D03*
X-13780Y16245D02*
D03*
X-13230D02*
D03*
X-11220Y13500D02*
D03*
X-11770D02*
D03*
X-33725Y17250D02*
D03*
X-39725Y7250D02*
D03*
X-25475Y10250D02*
D03*
Y9250D02*
D03*
X-39725Y8250D02*
D03*
Y9250D02*
D03*
X-57270Y10755D02*
D03*
X-56720D02*
D03*
X-58475Y17750D02*
D03*
X-59025D02*
D03*
X-27725Y3250D02*
D03*
X-28275D02*
D03*
X-7525Y21500D02*
D03*
X-6975D02*
D03*
X-27025Y3250D02*
D03*
X-26475D02*
D03*
X-8725Y21500D02*
D03*
X-9275D02*
D03*
X-59025Y19750D02*
D03*
X-58475D02*
D03*
X-59025Y16750D02*
D03*
X-58475D02*
D03*
X-59025Y18750D02*
D03*
X-58475D02*
D03*
X-59025Y6750D02*
D03*
X-58475D02*
D03*
X-59025Y5750D02*
D03*
X-58475D02*
D03*
X-55275Y8250D02*
D03*
X-54725D02*
D03*
X-55275Y9500D02*
D03*
X-54725D02*
D03*
D17*
X-25500Y8300D02*
D03*
Y7200D02*
D03*
X-30750Y17050D02*
D03*
Y15950D02*
D03*
D18*
X-35211Y22388D02*
D03*
D19*
X-15750Y20725D02*
D03*
Y21275D02*
D03*
X-7250Y7025D02*
D03*
Y6475D02*
D03*
X-32250Y16775D02*
D03*
Y16225D02*
D03*
X-26500Y7725D02*
D03*
Y8275D02*
D03*
X-20245Y8720D02*
D03*
X-20250Y12225D02*
D03*
Y12775D02*
D03*
X-20245Y9270D02*
D03*
X-43250Y12725D02*
D03*
Y13275D02*
D03*
X-7000Y15275D02*
D03*
Y14725D02*
D03*
Y13775D02*
D03*
Y13225D02*
D03*
X-11245Y10520D02*
D03*
Y9970D02*
D03*
X-7750Y6475D02*
D03*
Y7025D02*
D03*
X-10750Y11225D02*
D03*
X-40250Y12725D02*
D03*
Y13275D02*
D03*
X-5750Y16475D02*
D03*
X-7000Y11725D02*
D03*
X-5750Y17025D02*
D03*
X-7000Y12275D02*
D03*
X-11250Y11775D02*
D03*
Y11225D02*
D03*
X-7000Y16475D02*
D03*
Y17025D02*
D03*
X-5500Y12275D02*
D03*
X-10750Y11775D02*
D03*
X-48250Y13275D02*
D03*
Y12725D02*
D03*
X-5500Y11725D02*
D03*
X-4000D02*
D03*
Y12275D02*
D03*
X-5750Y18225D02*
D03*
Y18775D02*
D03*
D20*
X-27762Y1750D02*
D03*
X-27506D02*
D03*
X-27250D02*
D03*
X-26994D02*
D03*
X-26738D02*
D03*
D21*
X-26450Y570D02*
D03*
X-28080D02*
D03*
D22*
X-41900Y8250D02*
D03*
X-51400Y7250D02*
D03*
X-41900D02*
D03*
X-51400Y9250D02*
D03*
Y8250D02*
D03*
X-41900Y9250D02*
D03*
D23*
X-30750Y18165D02*
D03*
D24*
X-36500Y12350D02*
D03*
Y14650D02*
D03*
D25*
X-11100Y21375D02*
D03*
X-41350Y12625D02*
D03*
Y13375D02*
D03*
X-11100Y20625D02*
D03*
D26*
X-11900Y21005D02*
D03*
X-42150Y13005D02*
D03*
D27*
X-33850Y12844D02*
D03*
Y14656D02*
D03*
Y13750D02*
D03*
D28*
X-31650D02*
D03*
D29*
X-1228Y18625D02*
D03*
Y16875D02*
D03*
X-4772D02*
D03*
Y20375D02*
D03*
X-1228Y22125D02*
D03*
X-4772D02*
D03*
D30*
Y18625D02*
D03*
X-1228Y20375D02*
D03*
D31*
X-62250Y3750D02*
D03*
X-3750D02*
D03*
X-37671Y22526D02*
D03*
X-32750D02*
D03*
X-37671Y22250D02*
D03*
X-32750D02*
D03*
D32*
X-62250Y3750D02*
D03*
X-3750D02*
D03*
D33*
X-21700Y21500D02*
D03*
X-17800D02*
D03*
D34*
X-45750Y13600D02*
D03*
Y12400D02*
D03*
X-44500Y13600D02*
D03*
Y12400D02*
D03*
X-47000Y13600D02*
D03*
Y12400D02*
D03*
X-5750Y15100D02*
D03*
Y13900D02*
D03*
D35*
X-35755Y16100D02*
D03*
X-35745Y18900D02*
D03*
X-33995Y16400D02*
D03*
Y18900D02*
D03*
D36*
X-36125Y16900D02*
D03*
X-35375D02*
D03*
Y18100D02*
D03*
X-36125D02*
D03*
X-34375Y15600D02*
D03*
Y18100D02*
D03*
X-33625Y15600D02*
D03*
Y18100D02*
D03*
D37*
X-37150Y16000D02*
D03*
X-38350D02*
D03*
D38*
X-30750Y18835D02*
D03*
D39*
X-11449Y16250D02*
D03*
X-12551D02*
D03*
D40*
X-56625Y8250D02*
D03*
Y9250D02*
D03*
X-58875Y8250D02*
D03*
Y8750D02*
D03*
X-56625Y9750D02*
D03*
X-58875D02*
D03*
X-56625Y8750D02*
D03*
X-58875Y9250D02*
D03*
D41*
X-59600Y4500D02*
D03*
X-58400D02*
D03*
D47*
X-27500Y15500D02*
D03*
X-25500D02*
D03*
X-60755Y16751D02*
D03*
Y6751D02*
D03*
X-61755Y19751D02*
D03*
X-60755D02*
D03*
Y5751D02*
D03*
Y17751D02*
D03*
Y15751D02*
D03*
Y18751D02*
D03*
X-61755Y5751D02*
D03*
X-60755Y7751D02*
D03*
X-61755D02*
D03*
Y6751D02*
D03*
Y15751D02*
D03*
Y17751D02*
D03*
Y16751D02*
D03*
Y18751D02*
D03*
X-27500Y17500D02*
D03*
X-25500D02*
D03*
X-26500D02*
D03*
X-13250Y21000D02*
D03*
X-14250D02*
D03*
X-43600Y5254D02*
D03*
X-49860Y10017D02*
D03*
X-9750Y14750D02*
D03*
X-8750Y6750D02*
D03*
Y9750D02*
D03*
X-9750D02*
D03*
Y13750D02*
D03*
Y11750D02*
D03*
Y8750D02*
D03*
Y16750D02*
D03*
X-8750D02*
D03*
X-9750Y12750D02*
D03*
Y7750D02*
D03*
Y6750D02*
D03*
X-8750Y8750D02*
D03*
X-9750Y5750D02*
D03*
X-8750Y13750D02*
D03*
Y12750D02*
D03*
Y17750D02*
D03*
Y5750D02*
D03*
Y10750D02*
D03*
Y7750D02*
D03*
X-9750Y15750D02*
D03*
X-17250Y2000D02*
D03*
X-18250D02*
D03*
X-20250D02*
D03*
X-21250D02*
D03*
X-63750Y21750D02*
D03*
X-64750D02*
D03*
X-19250Y2000D02*
D03*
X-63750Y12750D02*
D03*
X-64750D02*
D03*
X-63750Y13750D02*
D03*
X-64750D02*
D03*
X-63750Y14750D02*
D03*
Y15750D02*
D03*
X-64750D02*
D03*
X-63750Y16750D02*
D03*
X-64750D02*
D03*
X-63750Y17750D02*
D03*
Y18750D02*
D03*
X-64750D02*
D03*
X-63750Y19750D02*
D03*
X-64750D02*
D03*
X-63750Y20750D02*
D03*
X-64750D02*
D03*
X-2750Y9000D02*
D03*
Y8000D02*
D03*
Y14000D02*
D03*
Y13000D02*
D03*
Y15000D02*
D03*
Y12000D02*
D03*
X-10250Y2000D02*
D03*
X-13250D02*
D03*
X-12250D02*
D03*
X-14250D02*
D03*
X-11250D02*
D03*
X-2750Y11000D02*
D03*
X-49750Y12500D02*
D03*
X-64750Y17750D02*
D03*
X-2750Y6000D02*
D03*
Y7000D02*
D03*
X-49750Y13500D02*
D03*
X-8750Y11750D02*
D03*
X-64750Y14750D02*
D03*
X-8750D02*
D03*
X-9750Y10750D02*
D03*
X-26500Y15500D02*
D03*
X-8750Y15750D02*
D03*
X-25500Y21500D02*
D03*
X-27500D02*
D03*
X-26500D02*
D03*
X-25500Y13500D02*
D03*
X-27500D02*
D03*
X-26500D02*
D03*
X-59500Y2500D02*
D03*
X-58500D02*
D03*
X-26500Y19500D02*
D03*
X-25500D02*
D03*
X-15750Y4750D02*
D03*
X-20750Y17750D02*
D03*
X-16750D02*
D03*
X-21750Y6750D02*
D03*
Y13750D02*
D03*
Y17750D02*
D03*
X-15750Y5750D02*
D03*
X-20750Y18750D02*
D03*
X-16750D02*
D03*
X-22750Y5750D02*
D03*
Y12750D02*
D03*
X-11750Y4750D02*
D03*
X-12750Y5750D02*
D03*
X-21750Y16750D02*
D03*
X-22750D02*
D03*
X-11750Y18750D02*
D03*
X-21750Y5750D02*
D03*
X-18750D02*
D03*
X-22750Y17750D02*
D03*
X-21750Y18750D02*
D03*
X-14750Y17750D02*
D03*
X-15750Y18750D02*
D03*
X-13750Y5750D02*
D03*
X-22750Y10750D02*
D03*
X-21750Y4750D02*
D03*
X-18750Y17750D02*
D03*
X-19750Y18750D02*
D03*
X-9750Y17750D02*
D03*
X-13750Y18750D02*
D03*
X-11750Y17750D02*
D03*
X-12750Y18750D02*
D03*
X-18750Y4750D02*
D03*
X-13750Y17750D02*
D03*
X-14750Y18750D02*
D03*
X-11750Y5750D02*
D03*
X-10750Y4750D02*
D03*
X-12750D02*
D03*
X-9750D02*
D03*
X-10750Y5750D02*
D03*
X-21750Y11750D02*
D03*
X-22750Y7750D02*
D03*
Y14750D02*
D03*
X-21750D02*
D03*
X-22750Y13750D02*
D03*
X-21750Y15750D02*
D03*
Y7750D02*
D03*
X-22750Y6750D02*
D03*
X-21750Y8750D02*
D03*
X-22750Y15750D02*
D03*
X-10750Y18750D02*
D03*
Y17750D02*
D03*
X-15750D02*
D03*
X-17750Y18750D02*
D03*
Y17750D02*
D03*
X-19750D02*
D03*
X-14750Y5750D02*
D03*
Y4750D02*
D03*
X-13750D02*
D03*
X-21750Y12750D02*
D03*
X-12750Y17750D02*
D03*
X-21750Y9750D02*
D03*
X-22750Y11750D02*
D03*
Y8750D02*
D03*
X-9750Y18750D02*
D03*
X-18750D02*
D03*
X-20750Y4750D02*
D03*
Y5750D02*
D03*
X-19750Y4750D02*
D03*
Y5750D02*
D03*
X-17750Y4750D02*
D03*
Y5750D02*
D03*
X-16750Y4750D02*
D03*
Y5750D02*
D03*
X-7000Y9250D02*
D03*
Y10250D02*
D03*
X-27500Y5750D02*
D03*
X-26500D02*
D03*
X-27500Y11750D02*
D03*
X-25500D02*
D03*
X-27500Y9750D02*
D03*
Y7750D02*
D03*
Y8750D02*
D03*
X-26500Y11750D02*
D03*
X-5500Y10250D02*
D03*
Y9250D02*
D03*
X-4000Y10250D02*
D03*
Y9250D02*
D03*
X-21750Y10750D02*
D03*
X-22750Y9750D02*
D03*
X-27500Y19500D02*
D03*
D48*
X-30755Y22501D02*
D03*
Y5001D02*
D03*
D03*
Y22501D02*
D03*
D49*
X-46750Y24500D02*
D03*
Y23500D02*
D03*
X-45750Y24500D02*
D03*
Y23500D02*
D03*
X-18250Y24500D02*
D03*
X-17250Y23500D02*
D03*
Y24500D02*
D03*
X-18250Y23500D02*
D03*
X-19250Y24500D02*
D03*
X-21250Y23500D02*
D03*
X-54750Y24500D02*
D03*
X-22250D02*
D03*
X-51750Y23500D02*
D03*
X-21250Y24500D02*
D03*
X-44750Y23500D02*
D03*
X-15250D02*
D03*
Y24500D02*
D03*
X-43750Y23500D02*
D03*
X-19250D02*
D03*
X-16250D02*
D03*
X-42750Y24500D02*
D03*
Y23500D02*
D03*
X-14250D02*
D03*
X-10250Y24500D02*
D03*
X-14250D02*
D03*
X-51750D02*
D03*
X-12250D02*
D03*
Y23500D02*
D03*
X-11250Y24500D02*
D03*
Y23500D02*
D03*
X-13250Y24500D02*
D03*
X-55750Y23500D02*
D03*
Y24500D02*
D03*
X-49750D02*
D03*
X-56750D02*
D03*
X-57750D02*
D03*
X-49750Y23500D02*
D03*
X-56750D02*
D03*
X-57750D02*
D03*
X-50750D02*
D03*
Y24500D02*
D03*
X-44750D02*
D03*
X-23250Y23500D02*
D03*
X-13250D02*
D03*
X-22250D02*
D03*
X-48750D02*
D03*
Y24500D02*
D03*
X-16250D02*
D03*
X-10250Y23500D02*
D03*
X-54750D02*
D03*
X-47750Y24500D02*
D03*
Y23500D02*
D03*
X-20250Y24500D02*
D03*
X-53750D02*
D03*
Y23500D02*
D03*
X-52750Y24500D02*
D03*
X-8250D02*
D03*
Y23500D02*
D03*
X-9250D02*
D03*
Y24500D02*
D03*
X-20250Y23500D02*
D03*
X-43750Y24500D02*
D03*
X-23250D02*
D03*
X-52750Y23500D02*
D03*
D50*
X-37671Y22388D02*
D03*
X-32750D02*
D03*
X-28293Y1878D02*
D03*
X-26207D02*
D03*
X-28766Y590D02*
D03*
Y730D02*
D03*
Y881D02*
D03*
X-25734Y590D02*
D03*
Y730D02*
D03*
Y881D02*
D03*
X-26350Y1878D02*
D03*
X-26050D02*
D03*
X-28150D02*
D03*
X-28450D02*
D03*
D51*
X-38750Y8000D02*
D03*
X-31250D02*
D03*
D52*
Y8100D02*
D03*
Y7900D02*
D03*
X-38750Y8100D02*
D03*
Y7900D02*
D03*
D53*
X-63250Y2750D02*
D03*
X-2750D02*
D03*
D54*
X-6222Y25500D02*
D03*
X-25278D02*
D03*
X-40722D02*
D03*
X-59778D02*
D03*
X-64000Y7000D02*
D03*
Y9000D02*
D03*
D55*
X-30755Y22501D02*
D03*
Y5001D02*
D03*
M02*
