M48
;Layer_Color=9474304
;FILE_FORMAT=2:5
INCH,LZ
;TYPE=PLATED
T1F00S00C0.01200
T2F00S00C0.01500
T3F00S00C0.01575
T4F00S00C0.02362
T5F00S00C0.03000
T6F00S00C0.04000
T7F00S00C0.06000
;TYPE=NON_PLATED
T8F00S00C0.06000
T9F00S00C0.10000
T10F00S00C0.12000
T11F00S00C0.12500
T12F00S00C0.12598
%
T01
X-05625Y0007
X-05575
Y0012
X-05625
X-05525
X-05475
Y0007
X-05525
X-0467
X-0462
Y0012
X-0467
X-0457
X-0452
Y0007
X-0457
X-04585Y00705
X-04635
Y00755
X-04585
X-04685
X-04735
Y00705
X-04685
X-0525Y008
X-053
Y0085
X-0525
X-05825Y00825
X-06Y0045
X-04075Y00775
X-0356Y00623
X-03525
X-03495
X-0339Y00705
X-0334
Y00755
X-0339
X-0329
X-0324
Y00705
X-0329
X-02964Y0086
X-0294
X-03465Y0012
Y0007
X-03515
X-03565
Y0012
X-03615
Y0007
X-03515Y0012
X-02725Y00095
Y00057
X-0275Y0038
Y0043
X-028
X-0285
Y0038
X-029
Y0043
X-028Y0038
X-0261Y00325
X-0248Y00415
X-02455
Y0044
X-0243
X-0244Y00515
Y0054
X-0248832Y0057332
X-02325Y006
X-0253Y00775
X-02565
X-0162Y0064
X-00675Y0062
X-00615Y00685
X-00625Y00745
X-006Y0075
X-00555
X-00575Y008
Y00825
X-0055Y0085
X-0065Y00725
X-0013Y007
X-0008
Y0075
X-0013
Y0065
Y006
X-0008
Y0065
X-00345Y01125
X-00375Y01365
Y01575
X-00545Y0158
X-00725Y015
X-0075Y01425
X-00625Y01325
X-0055Y01285
X-008Y01025
X-00825Y0095
X-00775
X-0104Y00965
X-01035Y01075
X-01085Y0134992
X-0134Y0139
Y01255
Y0113
Y0104
X-0132248Y0101752
X-01325Y00975
Y0095
X-01225Y01525
X-01323Y01652
X-011Y01995
X-01025Y01955
X-00825Y01925
X-00725Y02075
X-0066Y021
X-0057Y02145
X-00545Y02035
X-005225Y018625
X-0038Y0195
X-00375Y0176
X-0013Y016
Y0155
X-0008
Y016
Y015
Y0145
X-0013
Y015
Y0214
X-003Y02125
X-00685Y02225
X-0085Y0223
X-0096Y0215
X-01115Y0225
X-0165Y02185
X-0164Y02065
X-01725
X-0183
X-019Y02135
Y02185
X-0195
X-02
Y02135
X-0205
Y02185
X-02075Y0229
X-01925Y0225
X-01875Y0227
X-01725Y023
Y01935
X-01625
X-0165Y0169
X-0194Y01625
X-0199Y01665
X-01805Y01395
Y0137
X-01775Y01325
X-01665
X-01725Y01265
X-0176867Y0122133
X-017Y01165
Y011
X-01605Y01025
X-016Y0094
X-0168
X-0175Y00975
X-01615Y01225
X-0154Y0125
X-0155Y01375
X-01525
X-01475Y01135
X-0249Y01125
X-02515
X-0269Y0112
Y01035
X-0267Y01015
X-02875Y01135
Y01159
Y01245
Y01285
X-02825Y01465
X-02895Y01555
X-028Y01675
X-027Y016
X-026
Y01675
X-02525Y01625
X-0258Y018
X-02525Y01905
X-025Y01885
X-024025
X-0233708Y0206208
X-0216Y02065
X-0195Y02135
X-0226Y0226
X-0246Y0228
X-0244525Y0217025
X-0244Y0214
X-02505Y02125
X-02525Y021
X-0258Y02075
X-02565Y02035
X-0262669Y0202331
X-02665Y0203
X-0265Y0205
X-027
X-02735Y0206
X-02705Y0211
X-02675Y02105
X-0265
X-02575Y02295
X-0275
X-02725Y01845
X-02785Y01835
X-02895Y0178
X-02905Y01925
X-0293Y02295
X-0337Y0224
X-034Y0233
X-0352Y02375
X-0364Y0233
X-03665Y02235
X-03675Y018
X-0354Y0175
X-033725Y017625
X-033Y01795
Y01725
X-03225
Y01795
X-033625Y015975
X-0335Y01515
X-03385
X-03425
X-03308Y01345
X-03276
X-03244
X-03295Y012
X-0342
X-03165
X-0303
X-02965Y01425
X-02935
X-0304Y0154
X-03085
X-0365Y01595
X-03785Y0131
X-03835
Y0126
X-03785
X-03885
X-03935
Y0131
X-03885
X-0392Y01105
X-0395
X-04025Y01075
X-0399Y01035
X-04075Y0095
Y00875
X-04084Y01445
X-04036
X-04132
X-0424Y0138
X-0445Y0141
X-042Y018
Y0185
X-0415
X-041
Y018
X-0405
Y0185
X-0415Y018
X-04575Y0219
X-04615
X-04665
X-047
X-04775
X-0513Y0185
X-0518
Y018
X-0513
X-0523
X-0528
Y0185
X-0523
X-0538Y0154
Y0149
X-0543
X-0548
Y0154
X-0553
Y0149
X-0543Y0154
X-058Y0165
Y01775
X-0582Y01875
Y01975
X-05525Y023
X-05225Y0115
Y011
X-0525
X-05175Y01125
X-0514Y01155
X-0525Y0095
Y009
X-053
Y0095
X-0505Y00925
X-04825Y01025
X-04815Y01405
X-0463Y0141
X-05725Y01
Y00875
X-0595
X-06Y00925
X-06325Y0247
X-06375
Y0252
X-06325
X-06425
X-06475
Y0247
X-06425
X-03075Y02475
Y02525
X-03025
X-02975
Y02475
X-03025
X-02925
Y02525
X-0076Y0244
X-0035Y0245
Y025
X-003
X-0025
Y0245
X-002
Y025
X-003Y0245
T02
X-026686Y002264
T03
X-0287657Y00059
Y0007298
Y0008813
X-02845Y0018779
X-0282933
X-02815
X-02635
X-0262067
X-02605
X-0257343Y0008813
Y0007298
Y00059
T04
X-0376713Y02225
Y0223878
Y0225256
X-03275
Y0223878
Y02225
T05
X-03875Y0079
Y008
Y0081
X-03125
Y008
Y0079
T06
X-061755Y0057508
X-060755
Y0067508
Y0077508
X-061755
Y0067508
X-0595Y0025
X-0585
X-0275Y00575
X-0265
X-0275Y00775
X-02275
X-02175
Y00675
Y00575
X-02275
Y00675
X-02175Y00475
X-02075
Y00575
X-01975
X-01875
Y00475
X-01975
X-01775
Y00575
X-01675
X-01575
Y00475
X-01475
Y00575
X-01375
Y00475
X-01675
X-01725Y002
X-01825
X-01925
X-02025
X-02125
X-01425
X-01325
X-01225
X-01125
X-01025
X-01075Y00475
X-01175
Y00575
X-01275
Y00475
X-00975
Y00575
Y00675
X-00875
Y00575
Y00775
X-00975
X-01075Y00575
X-00275Y006
Y007
Y008
Y009
X-004Y00925
Y01025
X-0055
Y00925
X-007
Y01025
X-00875Y00975
X-00975
Y00875
X-00875
Y01075
Y01175
X-00975
Y01275
Y01375
Y01475
Y01575
Y01675
X-00875
Y01775
X-00975
X-01075
X-01175
Y01875
X-01275
Y01775
X-01075Y01875
X-00975
X-00875Y01575
Y01475
Y01375
Y01275
X-00975Y01075
X-00275Y011
Y012
Y013
Y014
Y015
X-00825Y0235
X-00925
X-01025
X-01125
X-01225
X-01325
Y021
X-01425
Y0235
X-01525
X-01625
X-01725
X-01825
X-01925
X-02025
X-02125
X-02225
X-02325
X-0255Y0215
X-0265
X-0275
Y0195
X-0265
X-0255
Y0175
X-0265
X-0275
Y0155
X-0265
X-0255
Y0135
X-0265
X-0275
Y01175
X-0265
X-0255
X-02275
Y01275
Y01375
X-02175
Y01475
X-02275
Y01575
Y01675
X-02175
Y01775
X-02075
Y01875
X-02175
X-02275Y01775
X-02175Y01575
Y01275
Y01175
Y01075
X-02275
Y00975
X-02175
Y00875
X-02275
X-0275
Y00975
X-01975Y01775
X-01875
X-01775
X-01675
Y01875
X-01575
X-01475
Y01775
X-01375
Y01875
X-01575Y01775
X-01775Y01875
X-01875
X-01975
X-04275Y0235
X-04375
X-04475
X-04575
X-04675
X-04775
X-04875
X-04975
X-05075
X-05175
X-05275
X-05375
X-05475
X-05575
X-05675
X-05775
X-04975Y0135
Y0125
X-06375Y01275
X-06475
Y01375
X-06375
Y01475
Y01575
X-06475
Y01675
X-06375
Y01775
Y01875
X-06475
Y01975
X-06375
Y02075
Y02175
X-06475
Y02075
Y01775
X-061755Y0177508
X-060755
Y0167508
Y0157508
X-061755
Y0167508
Y0187508
Y0197508
X-060755
Y0187508
X-06475Y01475
X-05775Y0245
X-05675
X-05575
X-05475
X-05375
X-05275
X-05175
X-05075
X-04975
X-04875
X-04775
X-04675
X-04575
X-04475
X-04375
X-04275
X-02325
X-02225
X-02125
X-02025
X-01925
X-01825
X-01725
X-01625
X-01525
X-01425
X-01325
X-01225
X-01125
X-01025
X-00925
X-00825
T07
X-064Y007
Y009
T08
X-0436004Y0052535
X-0498602Y0100173
T09
X-0597776Y0255
X-0407224
X-0252776
X-0062224
T10
X-06325Y00275
X-00275
T11
X-030755Y0050008
Y0225008
T12
X-030755Y0050008
Y0225008
M30
