%FSLAX24Y24*%
%MOIN*%
G70*
G01*
G75*
G04 Layer_Color=16711935*
%ADD10C,0.0100*%
%ADD11C,0.0150*%
%ADD12R,0.0650X0.0098*%
%ADD13R,0.0098X0.0650*%
G04:AMPARAMS|DCode=14|XSize=39.4mil|YSize=98.4mil|CornerRadius=0mil|HoleSize=0mil|Usage=FLASHONLY|Rotation=225.000|XOffset=0mil|YOffset=0mil|HoleType=Round|Shape=Rectangle|*
%AMROTATEDRECTD14*
4,1,4,-0.0209,0.0487,0.0487,-0.0209,0.0209,-0.0487,-0.0487,0.0209,-0.0209,0.0487,0.0*
%
%ADD14ROTATEDRECTD14*%

G04:AMPARAMS|DCode=15|XSize=39.4mil|YSize=98.4mil|CornerRadius=0mil|HoleSize=0mil|Usage=FLASHONLY|Rotation=135.000|XOffset=0mil|YOffset=0mil|HoleType=Round|Shape=Rectangle|*
%AMROTATEDRECTD15*
4,1,4,0.0487,0.0209,-0.0209,-0.0487,-0.0487,-0.0209,0.0209,0.0487,0.0487,0.0209,0.0*
%
%ADD15ROTATEDRECTD15*%

%ADD16R,0.0300X0.0300*%
%ADD17R,0.0600X0.0500*%
%ADD18C,0.1969*%
%ADD19R,0.0300X0.0300*%
%ADD20R,0.0157X0.0532*%
%ADD21R,0.0591X0.0984*%
%ADD22R,0.1000X0.0500*%
%ADD23R,0.0300X0.0394*%
%ADD24R,0.1000X0.1400*%
%ADD25R,0.0360X0.0360*%
%ADD26R,0.0500X0.0360*%
%ADD27R,0.0800X0.0400*%
%ADD28R,0.0900X0.1200*%
%ADD29R,0.0591X0.0394*%
%ADD30R,0.0591X0.0394*%
%ADD31C,0.0394*%
%ADD32C,0.0315*%
%ADD33R,0.1500X0.0500*%
%ADD34R,0.0400X0.0400*%
%ADD35R,0.0360X0.0500*%
%ADD36R,0.0360X0.0360*%
%ADD37R,0.0400X0.0400*%
%ADD38R,0.0394X0.0630*%
%ADD39R,0.0472X0.0591*%
%ADD40R,0.0600X0.0200*%
%ADD41R,0.0500X0.0600*%
%ADD42C,0.0050*%
%ADD43C,0.0080*%
%ADD44C,0.0120*%
%ADD45C,0.0200*%
%ADD46C,0.0300*%
%ADD47C,0.0600*%
%ADD48C,0.1260*%
%ADD49C,0.0620*%
%ADD50C,0.0394*%
%ADD51C,0.0500*%
%ADD52O,0.0500X0.1969*%
%ADD53C,0.1200*%
%ADD54C,0.1000*%
%ADD55C,0.1250*%
%ADD56C,0.0200*%
%ADD57C,0.0250*%
%ADD58C,0.0060*%
%ADD59C,0.0040*%
%ADD60C,0.0010*%
%ADD61C,0.0070*%
%ADD62R,0.0050X0.0700*%
%ADD63R,0.1487X0.0100*%
%ADD64R,0.0891X0.0694*%
%ADD65R,0.0891X0.0694*%
%ADD66R,0.0730X0.0178*%
%ADD67R,0.0178X0.0730*%
G04:AMPARAMS|DCode=68|XSize=47.4mil|YSize=106.4mil|CornerRadius=0mil|HoleSize=0mil|Usage=FLASHONLY|Rotation=225.000|XOffset=0mil|YOffset=0mil|HoleType=Round|Shape=Rectangle|*
%AMROTATEDRECTD68*
4,1,4,-0.0209,0.0544,0.0544,-0.0209,0.0209,-0.0544,-0.0544,0.0209,-0.0209,0.0544,0.0*
%
%ADD68ROTATEDRECTD68*%

G04:AMPARAMS|DCode=69|XSize=47.4mil|YSize=106.4mil|CornerRadius=0mil|HoleSize=0mil|Usage=FLASHONLY|Rotation=135.000|XOffset=0mil|YOffset=0mil|HoleType=Round|Shape=Rectangle|*
%AMROTATEDRECTD69*
4,1,4,0.0544,0.0209,-0.0209,-0.0544,-0.0544,-0.0209,0.0209,0.0544,0.0544,0.0209,0.0*
%
%ADD69ROTATEDRECTD69*%

%ADD70R,0.0380X0.0380*%
%ADD71R,0.0680X0.0580*%
%ADD72C,0.2049*%
%ADD73R,0.0380X0.0380*%
%ADD74R,0.0237X0.0612*%
%ADD75R,0.0671X0.1064*%
%ADD76R,0.1080X0.0580*%
%ADD77R,0.0380X0.0474*%
%ADD78R,0.0528X0.0928*%
%ADD79R,0.0440X0.0440*%
%ADD80R,0.0580X0.0440*%
%ADD81R,0.0880X0.0480*%
%ADD82R,0.0980X0.1280*%
%ADD83C,0.0474*%
%ADD84C,0.0395*%
%ADD85R,0.1264X0.0264*%
%ADD86R,0.0480X0.0480*%
%ADD87R,0.0440X0.0580*%
%ADD88R,0.0440X0.0440*%
%ADD89R,0.0480X0.0480*%
%ADD90R,0.0474X0.0710*%
%ADD91R,0.0552X0.0671*%
%ADD92R,0.0680X0.0280*%
%ADD93R,0.0580X0.0680*%
%ADD94C,0.0680*%
%ADD95C,0.1340*%
%ADD96C,0.0700*%
%ADD97C,0.0474*%
%ADD98C,0.0580*%
%ADD99O,0.0580X0.2049*%
%ADD100C,0.1280*%
%ADD101C,0.1080*%
%ADD102C,0.1330*%
%ADD103C,0.0030*%
D59*
X-61750Y100D02*
X-61650Y0D01*
X-61750Y100D02*
Y650D01*
X-61850Y750D02*
X-61750Y650D01*
X-65000Y750D02*
X-61850D01*
X-65250Y1000D02*
X-65000Y750D01*
X-65250Y1000D02*
Y4150D01*
X-65350Y4250D02*
X-65250Y4150D01*
X-65900Y4250D02*
X-65350D01*
X-66000Y4350D02*
X-65900Y4250D01*
X-4350Y0D02*
X-4250Y100D01*
Y650D01*
X-4150Y750D01*
X-1000D01*
X-750Y1000D01*
Y4150D01*
X-650Y4250D01*
X-100D01*
X0Y4350D01*
X-61650Y0D02*
X-4350D01*
X0Y4350D02*
Y26500D01*
X-44350D02*
X0D01*
X-66000Y4350D02*
Y26500D01*
X-44350D01*
D103*
X1220D02*
X1280D01*
X1220Y0D02*
X1280D01*
X1250Y26500D02*
X1350Y26200D01*
X1150D02*
X1250Y26500D01*
Y0D02*
X1350Y300D01*
X1150D02*
X1250Y0D01*
Y14585D02*
Y26500D01*
Y0D02*
Y11915D01*
X0Y-1280D02*
Y-1220D01*
X-66000Y-1280D02*
Y-1220D01*
X-300Y-1350D02*
X0Y-1250D01*
X-300Y-1150D02*
X0Y-1250D01*
X-66000D02*
X-65700Y-1350D01*
X-66000Y-1250D02*
X-65700Y-1150D01*
X-31540Y-1250D02*
X0D01*
X-66000D02*
X-34460D01*
X1251Y12187D02*
X1223Y12172D01*
X1209Y12130D01*
Y12101D01*
X1223Y12058D01*
X1266Y12030D01*
X1337Y12015D01*
X1409D01*
X1466Y12030D01*
X1494Y12058D01*
X1509Y12101D01*
Y12115D01*
X1494Y12158D01*
X1466Y12187D01*
X1423Y12201D01*
X1409D01*
X1366Y12187D01*
X1337Y12158D01*
X1323Y12115D01*
Y12101D01*
X1337Y12058D01*
X1366Y12030D01*
X1409Y12015D01*
X1209Y12467D02*
X1509Y12324D01*
X1209Y12267D02*
Y12467D01*
X1480Y12548D02*
X1494Y12534D01*
X1509Y12548D01*
X1494Y12562D01*
X1480Y12548D01*
X1209Y12657D02*
Y12814D01*
X1323Y12728D01*
Y12771D01*
X1337Y12799D01*
X1351Y12814D01*
X1394Y12828D01*
X1423D01*
X1466Y12814D01*
X1494Y12785D01*
X1509Y12742D01*
Y12699D01*
X1494Y12657D01*
X1480Y12642D01*
X1451Y12628D01*
X1266Y12895D02*
X1251Y12924D01*
X1209Y12966D01*
X1509D01*
X1151Y13451D02*
X1180Y13422D01*
X1223Y13394D01*
X1280Y13365D01*
X1351Y13351D01*
X1409D01*
X1480Y13365D01*
X1537Y13394D01*
X1580Y13422D01*
X1609Y13451D01*
X1180Y13422D02*
X1237Y13394D01*
X1280Y13379D01*
X1351Y13365D01*
X1409D01*
X1480Y13379D01*
X1523Y13394D01*
X1580Y13422D01*
X1309Y13508D02*
X1509D01*
X1366D02*
X1323Y13551D01*
X1309Y13579D01*
Y13622D01*
X1323Y13651D01*
X1366Y13665D01*
X1509D01*
X1366D02*
X1323Y13708D01*
X1309Y13736D01*
Y13779D01*
X1323Y13808D01*
X1366Y13822D01*
X1509D01*
X1309Y13916D02*
X1509D01*
X1366D02*
X1323Y13959D01*
X1309Y13988D01*
Y14031D01*
X1323Y14059D01*
X1366Y14073D01*
X1509D01*
X1366D02*
X1323Y14116D01*
X1309Y14145D01*
Y14188D01*
X1323Y14216D01*
X1366Y14231D01*
X1509D01*
X1151Y14325D02*
X1180Y14353D01*
X1223Y14382D01*
X1280Y14410D01*
X1351Y14425D01*
X1409D01*
X1480Y14410D01*
X1537Y14382D01*
X1580Y14353D01*
X1609Y14325D01*
X1180Y14353D02*
X1237Y14382D01*
X1280Y14396D01*
X1351Y14410D01*
X1409D01*
X1480Y14396D01*
X1523Y14382D01*
X1580Y14353D01*
X-34360Y-1266D02*
X-34332Y-1251D01*
X-34289Y-1209D01*
Y-1509D01*
X-33969Y-1251D02*
X-33983Y-1223D01*
X-34026Y-1209D01*
X-34055D01*
X-34098Y-1223D01*
X-34126Y-1266D01*
X-34140Y-1337D01*
Y-1409D01*
X-34126Y-1466D01*
X-34098Y-1494D01*
X-34055Y-1509D01*
X-34041D01*
X-33998Y-1494D01*
X-33969Y-1466D01*
X-33955Y-1423D01*
Y-1409D01*
X-33969Y-1366D01*
X-33998Y-1337D01*
X-34041Y-1323D01*
X-34055D01*
X-34098Y-1337D01*
X-34126Y-1366D01*
X-34140Y-1409D01*
X-33689Y-1209D02*
X-33832Y-1509D01*
X-33889Y-1209D02*
X-33689D01*
X-33608Y-1480D02*
X-33622Y-1494D01*
X-33608Y-1509D01*
X-33593Y-1494D01*
X-33608Y-1480D01*
X-33356Y-1251D02*
X-33371Y-1223D01*
X-33413Y-1209D01*
X-33442D01*
X-33485Y-1223D01*
X-33513Y-1266D01*
X-33528Y-1337D01*
Y-1409D01*
X-33513Y-1466D01*
X-33485Y-1494D01*
X-33442Y-1509D01*
X-33428D01*
X-33385Y-1494D01*
X-33356Y-1466D01*
X-33342Y-1423D01*
Y-1409D01*
X-33356Y-1366D01*
X-33385Y-1337D01*
X-33428Y-1323D01*
X-33442D01*
X-33485Y-1337D01*
X-33513Y-1366D01*
X-33528Y-1409D01*
X-33134Y-1209D02*
X-33276Y-1409D01*
X-33062D01*
X-33134Y-1209D02*
Y-1509D01*
X-32674Y-1151D02*
X-32702Y-1180D01*
X-32731Y-1223D01*
X-32759Y-1280D01*
X-32774Y-1351D01*
Y-1409D01*
X-32759Y-1480D01*
X-32731Y-1537D01*
X-32702Y-1580D01*
X-32674Y-1609D01*
X-32702Y-1180D02*
X-32731Y-1237D01*
X-32745Y-1280D01*
X-32759Y-1351D01*
Y-1409D01*
X-32745Y-1480D01*
X-32731Y-1523D01*
X-32702Y-1580D01*
X-32617Y-1309D02*
Y-1509D01*
Y-1366D02*
X-32574Y-1323D01*
X-32545Y-1309D01*
X-32502D01*
X-32474Y-1323D01*
X-32459Y-1366D01*
Y-1509D01*
Y-1366D02*
X-32417Y-1323D01*
X-32388Y-1309D01*
X-32345D01*
X-32317Y-1323D01*
X-32302Y-1366D01*
Y-1509D01*
X-32208Y-1309D02*
Y-1509D01*
Y-1366D02*
X-32165Y-1323D01*
X-32137Y-1309D01*
X-32094D01*
X-32065Y-1323D01*
X-32051Y-1366D01*
Y-1509D01*
Y-1366D02*
X-32008Y-1323D01*
X-31980Y-1309D01*
X-31937D01*
X-31908Y-1323D01*
X-31894Y-1366D01*
Y-1509D01*
X-31800Y-1151D02*
X-31771Y-1180D01*
X-31742Y-1223D01*
X-31714Y-1280D01*
X-31700Y-1351D01*
Y-1409D01*
X-31714Y-1480D01*
X-31742Y-1537D01*
X-31771Y-1580D01*
X-31800Y-1609D01*
X-31771Y-1180D02*
X-31742Y-1237D01*
X-31728Y-1280D01*
X-31714Y-1351D01*
Y-1409D01*
X-31728Y-1480D01*
X-31742Y-1523D01*
X-31771Y-1580D01*
M02*
