%FSLAX24Y24*%
%MOIN*%
G70*
G01*
G75*
%ADD10C,0.0030*%
%ADD11C,0.0040*%
%ADD12C,0.0050*%
%ADD13C,0.0067*%
D10*
X1220Y26500D02*
X1280D01*
X1220Y0D02*
X1280D01*
X1250Y26500D02*
X1350Y26200D01*
X1150D02*
X1250Y26500D01*
Y0D02*
X1350Y300D01*
X1150D02*
X1250Y0D01*
Y14585D02*
Y26500D01*
Y0D02*
Y11915D01*
X0Y-1280D02*
Y-1220D01*
X-66000Y-1280D02*
Y-1220D01*
X-300Y-1350D02*
X0Y-1250D01*
X-300Y-1150D02*
X0Y-1250D01*
X-66000D02*
X-65700Y-1350D01*
X-66000Y-1250D02*
X-65700Y-1150D01*
X-31540Y-1250D02*
X0D01*
X-66000D02*
X-34460D01*
X1251Y12187D02*
X1223Y12172D01*
X1209Y12130D01*
Y12101D01*
X1223Y12058D01*
X1266Y12030D01*
X1337Y12015D01*
X1409D01*
X1466Y12030D01*
X1494Y12058D01*
X1509Y12101D01*
Y12115D01*
X1494Y12158D01*
X1466Y12187D01*
X1423Y12201D01*
X1409D01*
X1366Y12187D01*
X1337Y12158D01*
X1323Y12115D01*
Y12101D01*
X1337Y12058D01*
X1366Y12030D01*
X1409Y12015D01*
X1209Y12467D02*
X1509Y12324D01*
X1209Y12267D02*
Y12467D01*
X1480Y12548D02*
X1494Y12534D01*
X1509Y12548D01*
X1494Y12562D01*
X1480Y12548D01*
X1209Y12657D02*
Y12814D01*
X1323Y12728D01*
Y12771D01*
X1337Y12799D01*
X1351Y12814D01*
X1394Y12828D01*
X1423D01*
X1466Y12814D01*
X1494Y12785D01*
X1509Y12742D01*
Y12699D01*
X1494Y12657D01*
X1480Y12642D01*
X1451Y12628D01*
X1266Y12895D02*
X1251Y12924D01*
X1209Y12966D01*
X1509D01*
X1151Y13451D02*
X1180Y13422D01*
X1223Y13394D01*
X1280Y13365D01*
X1351Y13351D01*
X1409D01*
X1480Y13365D01*
X1537Y13394D01*
X1580Y13422D01*
X1609Y13451D01*
X1180Y13422D02*
X1237Y13394D01*
X1280Y13379D01*
X1351Y13365D01*
X1409D01*
X1480Y13379D01*
X1523Y13394D01*
X1580Y13422D01*
X1309Y13508D02*
X1509D01*
X1366D02*
X1323Y13551D01*
X1309Y13579D01*
Y13622D01*
X1323Y13651D01*
X1366Y13665D01*
X1509D01*
X1366D02*
X1323Y13708D01*
X1309Y13736D01*
Y13779D01*
X1323Y13808D01*
X1366Y13822D01*
X1509D01*
X1309Y13916D02*
X1509D01*
X1366D02*
X1323Y13959D01*
X1309Y13988D01*
Y14031D01*
X1323Y14059D01*
X1366Y14073D01*
X1509D01*
X1366D02*
X1323Y14116D01*
X1309Y14145D01*
Y14188D01*
X1323Y14216D01*
X1366Y14231D01*
X1509D01*
X1151Y14325D02*
X1180Y14353D01*
X1223Y14382D01*
X1280Y14410D01*
X1351Y14425D01*
X1409D01*
X1480Y14410D01*
X1537Y14382D01*
X1580Y14353D01*
X1609Y14325D01*
X1180Y14353D02*
X1237Y14382D01*
X1280Y14396D01*
X1351Y14410D01*
X1409D01*
X1480Y14396D01*
X1523Y14382D01*
X1580Y14353D01*
X-34360Y-1266D02*
X-34332Y-1251D01*
X-34289Y-1209D01*
Y-1509D01*
X-33969Y-1251D02*
X-33983Y-1223D01*
X-34026Y-1209D01*
X-34055D01*
X-34098Y-1223D01*
X-34126Y-1266D01*
X-34140Y-1337D01*
Y-1409D01*
X-34126Y-1466D01*
X-34098Y-1494D01*
X-34055Y-1509D01*
X-34041D01*
X-33998Y-1494D01*
X-33969Y-1466D01*
X-33955Y-1423D01*
Y-1409D01*
X-33969Y-1366D01*
X-33998Y-1337D01*
X-34041Y-1323D01*
X-34055D01*
X-34098Y-1337D01*
X-34126Y-1366D01*
X-34140Y-1409D01*
X-33689Y-1209D02*
X-33832Y-1509D01*
X-33889Y-1209D02*
X-33689D01*
X-33608Y-1480D02*
X-33622Y-1494D01*
X-33608Y-1509D01*
X-33593Y-1494D01*
X-33608Y-1480D01*
X-33356Y-1251D02*
X-33371Y-1223D01*
X-33413Y-1209D01*
X-33442D01*
X-33485Y-1223D01*
X-33513Y-1266D01*
X-33528Y-1337D01*
Y-1409D01*
X-33513Y-1466D01*
X-33485Y-1494D01*
X-33442Y-1509D01*
X-33428D01*
X-33385Y-1494D01*
X-33356Y-1466D01*
X-33342Y-1423D01*
Y-1409D01*
X-33356Y-1366D01*
X-33385Y-1337D01*
X-33428Y-1323D01*
X-33442D01*
X-33485Y-1337D01*
X-33513Y-1366D01*
X-33528Y-1409D01*
X-33134Y-1209D02*
X-33276Y-1409D01*
X-33062D01*
X-33134Y-1209D02*
Y-1509D01*
X-32674Y-1151D02*
X-32702Y-1180D01*
X-32731Y-1223D01*
X-32759Y-1280D01*
X-32774Y-1351D01*
Y-1409D01*
X-32759Y-1480D01*
X-32731Y-1537D01*
X-32702Y-1580D01*
X-32674Y-1609D01*
X-32702Y-1180D02*
X-32731Y-1237D01*
X-32745Y-1280D01*
X-32759Y-1351D01*
Y-1409D01*
X-32745Y-1480D01*
X-32731Y-1523D01*
X-32702Y-1580D01*
X-32617Y-1309D02*
Y-1509D01*
Y-1366D02*
X-32574Y-1323D01*
X-32545Y-1309D01*
X-32502D01*
X-32474Y-1323D01*
X-32459Y-1366D01*
Y-1509D01*
Y-1366D02*
X-32417Y-1323D01*
X-32388Y-1309D01*
X-32345D01*
X-32317Y-1323D01*
X-32302Y-1366D01*
Y-1509D01*
X-32208Y-1309D02*
Y-1509D01*
Y-1366D02*
X-32165Y-1323D01*
X-32137Y-1309D01*
X-32094D01*
X-32065Y-1323D01*
X-32051Y-1366D01*
Y-1509D01*
Y-1366D02*
X-32008Y-1323D01*
X-31980Y-1309D01*
X-31937D01*
X-31908Y-1323D01*
X-31894Y-1366D01*
Y-1509D01*
X-31800Y-1151D02*
X-31771Y-1180D01*
X-31742Y-1223D01*
X-31714Y-1280D01*
X-31700Y-1351D01*
Y-1409D01*
X-31714Y-1480D01*
X-31742Y-1537D01*
X-31771Y-1580D01*
X-31800Y-1609D01*
X-31771Y-1180D02*
X-31742Y-1237D01*
X-31728Y-1280D01*
X-31714Y-1351D01*
Y-1409D01*
X-31728Y-1480D01*
X-31742Y-1523D01*
X-31771Y-1580D01*
D11*
X-61750Y100D02*
X-61650Y0D01*
X-61750Y100D02*
Y650D01*
X-61850Y750D02*
X-61750Y650D01*
X-65000Y750D02*
X-61850D01*
X-65250Y1000D02*
X-65000Y750D01*
X-65250Y1000D02*
Y4150D01*
X-65350Y4250D02*
X-65250Y4150D01*
X-65900Y4250D02*
X-65350D01*
X-66000Y4350D02*
X-65900Y4250D01*
X-4350Y0D02*
X-4250Y100D01*
Y650D01*
X-4150Y750D01*
X-1000D01*
X-750Y1000D01*
Y4150D01*
X-650Y4250D01*
X-100D01*
X0Y4350D01*
X-61650Y0D02*
X-4350D01*
X0Y4350D02*
Y26500D01*
X-44350D02*
X0D01*
X-66000Y4350D02*
Y26500D01*
X-44350D01*
D12*
X-27700Y15500D02*
X-27300D01*
X-27500Y15300D02*
Y15700D01*
X-25700Y15500D02*
X-25300D01*
X-25500Y15300D02*
Y15700D01*
X-60955Y16751D02*
X-60555D01*
X-60755Y16551D02*
Y16951D01*
X-60955Y6751D02*
X-60555D01*
X-60755Y6551D02*
Y6951D01*
X-61955Y19751D02*
X-61555D01*
X-61755Y19551D02*
Y19951D01*
X-60955Y19751D02*
X-60555D01*
X-60755Y19551D02*
Y19951D01*
X-60955Y5751D02*
X-60555D01*
X-60755Y5551D02*
Y5951D01*
X-60955Y17751D02*
X-60555D01*
X-60755Y17551D02*
Y17951D01*
X-60955Y15751D02*
X-60555D01*
X-60755Y15551D02*
Y15951D01*
X-60955Y18751D02*
X-60555D01*
X-60755Y18551D02*
Y18951D01*
X-61955Y5751D02*
X-61555D01*
X-61755Y5551D02*
Y5951D01*
X-60955Y7751D02*
X-60555D01*
X-60755Y7551D02*
Y7951D01*
X-61955Y7751D02*
X-61555D01*
X-61755Y7551D02*
Y7951D01*
X-61955Y6751D02*
X-61555D01*
X-61755Y6551D02*
Y6951D01*
X-31385Y22501D02*
X-30125D01*
X-30755Y21871D02*
Y23131D01*
X-31385Y5001D02*
X-30125D01*
X-30755Y4371D02*
Y5631D01*
X-61955Y15751D02*
X-61555D01*
X-61755Y15551D02*
Y15951D01*
X-61955Y17751D02*
X-61555D01*
X-61755Y17551D02*
Y17951D01*
X-61955Y16751D02*
X-61555D01*
X-61755Y16551D02*
Y16951D01*
X-61955Y18751D02*
X-61555D01*
X-61755Y18551D02*
Y18951D01*
X-27700Y17500D02*
X-27300D01*
X-27500Y17300D02*
Y17700D01*
X-25700Y17500D02*
X-25300D01*
X-25500Y17300D02*
Y17700D01*
X-26700Y17500D02*
X-26300D01*
X-26500Y17300D02*
Y17700D01*
X-46950Y24500D02*
X-46550D01*
X-46750Y24300D02*
Y24700D01*
X-46950Y23500D02*
X-46550D01*
X-46750Y23300D02*
Y23700D01*
X-45950Y24500D02*
X-45550D01*
X-45750Y24300D02*
Y24700D01*
X-45950Y23500D02*
X-45550D01*
X-45750Y23300D02*
Y23700D01*
X-18450Y24500D02*
X-18050D01*
X-18250Y24300D02*
Y24700D01*
X-17450Y23500D02*
X-17050D01*
X-17250Y23300D02*
Y23700D01*
X-17450Y24500D02*
X-17050D01*
X-17250Y24300D02*
Y24700D01*
X-18450Y23500D02*
X-18050D01*
X-18250Y23300D02*
Y23700D01*
X-37789Y22388D02*
X-37553D01*
X-37671Y22270D02*
Y22506D01*
X-32868Y22388D02*
X-32632D01*
X-32750Y22270D02*
Y22506D01*
X-37789Y22526D02*
X-37553D01*
X-37671Y22407D02*
Y22644D01*
X-32868Y22526D02*
X-32632D01*
X-32750Y22407D02*
Y22644D01*
X-37789Y22250D02*
X-37553D01*
X-37671Y22132D02*
Y22368D01*
X-32868Y22250D02*
X-32632D01*
X-32750Y22132D02*
Y22368D01*
X-13450Y21000D02*
X-13050D01*
X-13250Y20800D02*
Y21200D01*
X-14450Y21000D02*
X-14050D01*
X-14250Y20800D02*
Y21200D01*
X-28372Y1878D02*
X-28215D01*
X-28293Y1799D02*
Y1957D01*
X-26285Y1878D02*
X-26128D01*
X-26207Y1799D02*
Y1957D01*
X-28844Y590D02*
X-28687D01*
X-28766Y511D02*
Y669D01*
X-28844Y730D02*
X-28687D01*
X-28766Y651D02*
Y809D01*
X-28844Y881D02*
X-28687D01*
X-28766Y803D02*
Y960D01*
X-25813Y590D02*
X-25656D01*
X-25734Y511D02*
Y669D01*
X-25813Y730D02*
X-25656D01*
X-25734Y651D02*
Y809D01*
X-25813Y881D02*
X-25656D01*
X-25734Y803D02*
Y960D01*
X-26429Y1878D02*
X-26271D01*
X-26350Y1799D02*
Y1957D01*
X-26129Y1878D02*
X-25971D01*
X-26050Y1799D02*
Y1957D01*
X-28229Y1878D02*
X-28071D01*
X-28150Y1799D02*
Y1957D01*
X-28529Y1878D02*
X-28371D01*
X-28450Y1799D02*
Y1957D01*
X-43900Y5254D02*
X-43300D01*
X-43600Y4954D02*
Y5554D01*
X-50160Y10017D02*
X-49560D01*
X-49860Y9717D02*
Y10317D01*
X-38900Y8000D02*
X-38600D01*
X-38750Y7850D02*
Y8150D01*
X-31400Y8100D02*
X-31100D01*
X-31250Y7950D02*
Y8250D01*
X-31400Y7900D02*
X-31100D01*
X-31250Y7750D02*
Y8050D01*
X-38900Y8100D02*
X-38600D01*
X-38750Y7950D02*
Y8250D01*
X-38900Y7900D02*
X-38600D01*
X-38750Y7750D02*
Y8050D01*
X-31400Y8000D02*
X-31100D01*
X-31250Y7850D02*
Y8150D01*
X-9950Y14750D02*
X-9550D01*
X-9750Y14550D02*
Y14950D01*
X-8950Y6750D02*
X-8550D01*
X-8750Y6550D02*
Y6950D01*
X-8950Y9750D02*
X-8550D01*
X-8750Y9550D02*
Y9950D01*
X-9950Y9750D02*
X-9550D01*
X-9750Y9550D02*
Y9950D01*
X-9950Y13750D02*
X-9550D01*
X-9750Y13550D02*
Y13950D01*
X-9950Y11750D02*
X-9550D01*
X-9750Y11550D02*
Y11950D01*
X-9950Y8750D02*
X-9550D01*
X-9750Y8550D02*
Y8950D01*
X-9950Y16750D02*
X-9550D01*
X-9750Y16550D02*
Y16950D01*
X-8950Y16750D02*
X-8550D01*
X-8750Y16550D02*
Y16950D01*
X-9950Y12750D02*
X-9550D01*
X-9750Y12550D02*
Y12950D01*
X-9950Y7750D02*
X-9550D01*
X-9750Y7550D02*
Y7950D01*
X-9950Y6750D02*
X-9550D01*
X-9750Y6550D02*
Y6950D01*
X-8950Y8750D02*
X-8550D01*
X-8750Y8550D02*
Y8950D01*
X-9950Y5750D02*
X-9550D01*
X-9750Y5550D02*
Y5950D01*
X-8950Y13750D02*
X-8550D01*
X-8750Y13550D02*
Y13950D01*
X-8950Y12750D02*
X-8550D01*
X-8750Y12550D02*
Y12950D01*
X-8950Y17750D02*
X-8550D01*
X-8750Y17550D02*
Y17950D01*
X-8950Y5750D02*
X-8550D01*
X-8750Y5550D02*
Y5950D01*
X-8950Y10750D02*
X-8550D01*
X-8750Y10550D02*
Y10950D01*
X-8950Y7750D02*
X-8550D01*
X-8750Y7550D02*
Y7950D01*
X-9950Y15750D02*
X-9550D01*
X-9750Y15550D02*
Y15950D01*
X-19450Y24500D02*
X-19050D01*
X-19250Y24300D02*
Y24700D01*
X-21450Y23500D02*
X-21050D01*
X-21250Y23300D02*
Y23700D01*
X-54950Y24500D02*
X-54550D01*
X-54750Y24300D02*
Y24700D01*
X-22450Y24500D02*
X-22050D01*
X-22250Y24300D02*
Y24700D01*
X-51950Y23500D02*
X-51550D01*
X-51750Y23300D02*
Y23700D01*
X-21450Y24500D02*
X-21050D01*
X-21250Y24300D02*
Y24700D01*
X-44950Y23500D02*
X-44550D01*
X-44750Y23300D02*
Y23700D01*
X-15450Y23500D02*
X-15050D01*
X-15250Y23300D02*
Y23700D01*
X-15450Y24500D02*
X-15050D01*
X-15250Y24300D02*
Y24700D01*
X-43950Y23500D02*
X-43550D01*
X-43750Y23300D02*
Y23700D01*
X-19450Y23500D02*
X-19050D01*
X-19250Y23300D02*
Y23700D01*
X-17450Y2000D02*
X-17050D01*
X-17250Y1800D02*
Y2200D01*
X-18450Y2000D02*
X-18050D01*
X-18250Y1800D02*
Y2200D01*
X-16450Y23500D02*
X-16050D01*
X-16250Y23300D02*
Y23700D01*
X-42950Y24500D02*
X-42550D01*
X-42750Y24300D02*
Y24700D01*
X-42950Y23500D02*
X-42550D01*
X-42750Y23300D02*
Y23700D01*
X-14450Y23500D02*
X-14050D01*
X-14250Y23300D02*
Y23700D01*
X-10450Y24500D02*
X-10050D01*
X-10250Y24300D02*
Y24700D01*
X-14450Y24500D02*
X-14050D01*
X-14250Y24300D02*
Y24700D01*
X-20450Y2000D02*
X-20050D01*
X-20250Y1800D02*
Y2200D01*
X-21450Y2000D02*
X-21050D01*
X-21250Y1800D02*
Y2200D01*
X-63950Y21750D02*
X-63550D01*
X-63750Y21550D02*
Y21950D01*
X-64950Y21750D02*
X-64550D01*
X-64750Y21550D02*
Y21950D01*
X-19450Y2000D02*
X-19050D01*
X-19250Y1800D02*
Y2200D01*
X-51950Y24500D02*
X-51550D01*
X-51750Y24300D02*
Y24700D01*
X-63850Y2750D02*
X-62650D01*
X-63250Y2150D02*
Y3350D01*
X-3350Y2750D02*
X-2150D01*
X-2750Y2150D02*
Y3350D01*
X-12450Y24500D02*
X-12050D01*
X-12250Y24300D02*
Y24700D01*
X-12450Y23500D02*
X-12050D01*
X-12250Y23300D02*
Y23700D01*
X-11450Y24500D02*
X-11050D01*
X-11250Y24300D02*
Y24700D01*
X-11450Y23500D02*
X-11050D01*
X-11250Y23300D02*
Y23700D01*
X-13450Y24500D02*
X-13050D01*
X-13250Y24300D02*
Y24700D01*
X-6722Y25500D02*
X-5722D01*
X-6222Y25000D02*
Y26000D01*
X-25778Y25500D02*
X-24778D01*
X-25278Y25000D02*
Y26000D01*
X-55950Y23500D02*
X-55550D01*
X-55750Y23300D02*
Y23700D01*
X-55950Y24500D02*
X-55550D01*
X-55750Y24300D02*
Y24700D01*
X-49950Y24500D02*
X-49550D01*
X-49750Y24300D02*
Y24700D01*
X-56950Y24500D02*
X-56550D01*
X-56750Y24300D02*
Y24700D01*
X-57950Y24500D02*
X-57550D01*
X-57750Y24300D02*
Y24700D01*
X-49950Y23500D02*
X-49550D01*
X-49750Y23300D02*
Y23700D01*
X-56950Y23500D02*
X-56550D01*
X-56750Y23300D02*
Y23700D01*
X-57950Y23500D02*
X-57550D01*
X-57750Y23300D02*
Y23700D01*
X-41222Y25500D02*
X-40222D01*
X-40722Y25000D02*
Y26000D01*
X-60278Y25500D02*
X-59278D01*
X-59778Y25000D02*
Y26000D01*
X-31385Y5001D02*
X-30125D01*
X-30755Y4371D02*
Y5631D01*
X-31385Y22501D02*
X-30125D01*
X-30755Y21871D02*
Y23131D01*
X-63950Y12750D02*
X-63550D01*
X-63750Y12550D02*
Y12950D01*
X-64950Y12750D02*
X-64550D01*
X-64750Y12550D02*
Y12950D01*
X-63950Y13750D02*
X-63550D01*
X-63750Y13550D02*
Y13950D01*
X-64950Y13750D02*
X-64550D01*
X-64750Y13550D02*
Y13950D01*
X-63950Y14750D02*
X-63550D01*
X-63750Y14550D02*
Y14950D01*
X-63950Y15750D02*
X-63550D01*
X-63750Y15550D02*
Y15950D01*
X-64950Y15750D02*
X-64550D01*
X-64750Y15550D02*
Y15950D01*
X-63950Y16750D02*
X-63550D01*
X-63750Y16550D02*
Y16950D01*
X-64950Y16750D02*
X-64550D01*
X-64750Y16550D02*
Y16950D01*
X-63950Y17750D02*
X-63550D01*
X-63750Y17550D02*
Y17950D01*
X-63950Y18750D02*
X-63550D01*
X-63750Y18550D02*
Y18950D01*
X-64950Y18750D02*
X-64550D01*
X-64750Y18550D02*
Y18950D01*
X-63950Y19750D02*
X-63550D01*
X-63750Y19550D02*
Y19950D01*
X-64950Y19750D02*
X-64550D01*
X-64750Y19550D02*
Y19950D01*
X-63950Y20750D02*
X-63550D01*
X-63750Y20550D02*
Y20950D01*
X-64950Y20750D02*
X-64550D01*
X-64750Y20550D02*
Y20950D01*
X-2950Y9000D02*
X-2550D01*
X-2750Y8800D02*
Y9200D01*
X-2950Y8000D02*
X-2550D01*
X-2750Y7800D02*
Y8200D01*
X-2950Y14000D02*
X-2550D01*
X-2750Y13800D02*
Y14200D01*
X-2950Y13000D02*
X-2550D01*
X-2750Y12800D02*
Y13200D01*
X-2950Y15000D02*
X-2550D01*
X-2750Y14800D02*
Y15200D01*
X-2950Y12000D02*
X-2550D01*
X-2750Y11800D02*
Y12200D01*
X-10450Y2000D02*
X-10050D01*
X-10250Y1800D02*
Y2200D01*
X-13450Y2000D02*
X-13050D01*
X-13250Y1800D02*
Y2200D01*
X-12450Y2000D02*
X-12050D01*
X-12250Y1800D02*
Y2200D01*
X-14450Y2000D02*
X-14050D01*
X-14250Y1800D02*
Y2200D01*
X-11450Y2000D02*
X-11050D01*
X-11250Y1800D02*
Y2200D01*
X-50950Y23500D02*
X-50550D01*
X-50750Y23300D02*
Y23700D01*
X-50950Y24500D02*
X-50550D01*
X-50750Y24300D02*
Y24700D01*
X-44950Y24500D02*
X-44550D01*
X-44750Y24300D02*
Y24700D01*
X-23450Y23500D02*
X-23050D01*
X-23250Y23300D02*
Y23700D01*
X-2950Y11000D02*
X-2550D01*
X-2750Y10800D02*
Y11200D01*
X-31380Y22501D02*
X-30130D01*
X-30755Y21876D02*
Y23126D01*
X-31380Y5001D02*
X-30130D01*
X-30755Y4376D02*
Y5626D01*
X-13450Y23500D02*
X-13050D01*
X-13250Y23300D02*
Y23700D01*
X-22450Y23500D02*
X-22050D01*
X-22250Y23300D02*
Y23700D01*
X-49950Y12500D02*
X-49550D01*
X-49750Y12300D02*
Y12700D01*
X-64950Y17750D02*
X-64550D01*
X-64750Y17550D02*
Y17950D01*
X-2950Y6000D02*
X-2550D01*
X-2750Y5800D02*
Y6200D01*
X-2950Y7000D02*
X-2550D01*
X-2750Y6800D02*
Y7200D01*
X-49950Y13500D02*
X-49550D01*
X-49750Y13300D02*
Y13700D01*
X-8950Y11750D02*
X-8550D01*
X-8750Y11550D02*
Y11950D01*
X-64950Y14750D02*
X-64550D01*
X-64750Y14550D02*
Y14950D01*
X-8950Y14750D02*
X-8550D01*
X-8750Y14550D02*
Y14950D01*
X-9950Y10750D02*
X-9550D01*
X-9750Y10550D02*
Y10950D01*
X-48950Y23500D02*
X-48550D01*
X-48750Y23300D02*
Y23700D01*
X-48950Y24500D02*
X-48550D01*
X-48750Y24300D02*
Y24700D01*
X-16450Y24500D02*
X-16050D01*
X-16250Y24300D02*
Y24700D01*
X-10450Y23500D02*
X-10050D01*
X-10250Y23300D02*
Y23700D01*
X-54950Y23500D02*
X-54550D01*
X-54750Y23300D02*
Y23700D01*
X-47950Y24500D02*
X-47550D01*
X-47750Y24300D02*
Y24700D01*
X-47950Y23500D02*
X-47550D01*
X-47750Y23300D02*
Y23700D01*
X-20450Y24500D02*
X-20050D01*
X-20250Y24300D02*
Y24700D01*
X-53950Y24500D02*
X-53550D01*
X-53750Y24300D02*
Y24700D01*
X-53950Y23500D02*
X-53550D01*
X-53750Y23300D02*
Y23700D01*
X-52950Y24500D02*
X-52550D01*
X-52750Y24300D02*
Y24700D01*
X-26700Y15500D02*
X-26300D01*
X-26500Y15300D02*
Y15700D01*
X-8450Y24500D02*
X-8050D01*
X-8250Y24300D02*
Y24700D01*
X-8450Y23500D02*
X-8050D01*
X-8250Y23300D02*
Y23700D01*
X-9450Y23500D02*
X-9050D01*
X-9250Y23300D02*
Y23700D01*
X-9450Y24500D02*
X-9050D01*
X-9250Y24300D02*
Y24700D01*
X-20450Y23500D02*
X-20050D01*
X-20250Y23300D02*
Y23700D01*
X-43950Y24500D02*
X-43550D01*
X-43750Y24300D02*
Y24700D01*
X-23450Y24500D02*
X-23050D01*
X-23250Y24300D02*
Y24700D01*
X-8950Y15750D02*
X-8550D01*
X-8750Y15550D02*
Y15950D01*
X-64300Y7000D02*
X-63700D01*
X-64000Y6700D02*
Y7300D01*
X-64300Y9000D02*
X-63700D01*
X-64000Y8700D02*
Y9300D01*
X-25700Y21500D02*
X-25300D01*
X-25500Y21300D02*
Y21700D01*
X-27700Y21500D02*
X-27300D01*
X-27500Y21300D02*
Y21700D01*
X-26700Y21500D02*
X-26300D01*
X-26500Y21300D02*
Y21700D01*
X-25700Y13500D02*
X-25300D01*
X-25500Y13300D02*
Y13700D01*
X-27700Y13500D02*
X-27300D01*
X-27500Y13300D02*
Y13700D01*
X-26700Y13500D02*
X-26300D01*
X-26500Y13300D02*
Y13700D01*
X-59700Y2500D02*
X-59300D01*
X-59500Y2300D02*
Y2700D01*
X-58700Y2500D02*
X-58300D01*
X-58500Y2300D02*
Y2700D01*
X-26700Y19500D02*
X-26300D01*
X-26500Y19300D02*
Y19700D01*
X-25700Y19500D02*
X-25300D01*
X-25500Y19300D02*
Y19700D01*
X-15950Y4750D02*
X-15550D01*
X-15750Y4550D02*
Y4950D01*
X-20950Y17750D02*
X-20550D01*
X-20750Y17550D02*
Y17950D01*
X-16950Y17750D02*
X-16550D01*
X-16750Y17550D02*
Y17950D01*
X-21950Y6750D02*
X-21550D01*
X-21750Y6550D02*
Y6950D01*
X-21950Y13750D02*
X-21550D01*
X-21750Y13550D02*
Y13950D01*
X-21950Y17750D02*
X-21550D01*
X-21750Y17550D02*
Y17950D01*
X-15950Y5750D02*
X-15550D01*
X-15750Y5550D02*
Y5950D01*
X-20950Y18750D02*
X-20550D01*
X-20750Y18550D02*
Y18950D01*
X-16950Y18750D02*
X-16550D01*
X-16750Y18550D02*
Y18950D01*
X-22950Y5750D02*
X-22550D01*
X-22750Y5550D02*
Y5950D01*
X-22950Y12750D02*
X-22550D01*
X-22750Y12550D02*
Y12950D01*
X-11950Y4750D02*
X-11550D01*
X-11750Y4550D02*
Y4950D01*
X-12950Y5750D02*
X-12550D01*
X-12750Y5550D02*
Y5950D01*
X-21950Y16750D02*
X-21550D01*
X-21750Y16550D02*
Y16950D01*
X-22950Y16750D02*
X-22550D01*
X-22750Y16550D02*
Y16950D01*
X-11950Y18750D02*
X-11550D01*
X-11750Y18550D02*
Y18950D01*
X-21950Y5750D02*
X-21550D01*
X-21750Y5550D02*
Y5950D01*
X-18950Y5750D02*
X-18550D01*
X-18750Y5550D02*
Y5950D01*
X-22950Y17750D02*
X-22550D01*
X-22750Y17550D02*
Y17950D01*
X-21950Y18750D02*
X-21550D01*
X-21750Y18550D02*
Y18950D01*
X-14950Y17750D02*
X-14550D01*
X-14750Y17550D02*
Y17950D01*
X-15950Y18750D02*
X-15550D01*
X-15750Y18550D02*
Y18950D01*
X-13950Y5750D02*
X-13550D01*
X-13750Y5550D02*
Y5950D01*
X-22950Y10750D02*
X-22550D01*
X-22750Y10550D02*
Y10950D01*
X-21950Y4750D02*
X-21550D01*
X-21750Y4550D02*
Y4950D01*
X-18950Y17750D02*
X-18550D01*
X-18750Y17550D02*
Y17950D01*
X-19950Y18750D02*
X-19550D01*
X-19750Y18550D02*
Y18950D01*
X-9950Y17750D02*
X-9550D01*
X-9750Y17550D02*
Y17950D01*
X-13950Y18750D02*
X-13550D01*
X-13750Y18550D02*
Y18950D01*
X-11950Y17750D02*
X-11550D01*
X-11750Y17550D02*
Y17950D01*
X-12950Y18750D02*
X-12550D01*
X-12750Y18550D02*
Y18950D01*
X-18950Y4750D02*
X-18550D01*
X-18750Y4550D02*
Y4950D01*
X-13950Y17750D02*
X-13550D01*
X-13750Y17550D02*
Y17950D01*
X-14950Y18750D02*
X-14550D01*
X-14750Y18550D02*
Y18950D01*
X-11950Y5750D02*
X-11550D01*
X-11750Y5550D02*
Y5950D01*
X-10950Y4750D02*
X-10550D01*
X-10750Y4550D02*
Y4950D01*
X-12950Y4750D02*
X-12550D01*
X-12750Y4550D02*
Y4950D01*
X-9950Y4750D02*
X-9550D01*
X-9750Y4550D02*
Y4950D01*
X-10950Y5750D02*
X-10550D01*
X-10750Y5550D02*
Y5950D01*
X-21950Y11750D02*
X-21550D01*
X-21750Y11550D02*
Y11950D01*
X-22950Y7750D02*
X-22550D01*
X-22750Y7550D02*
Y7950D01*
X-22950Y14750D02*
X-22550D01*
X-22750Y14550D02*
Y14950D01*
X-21950Y14750D02*
X-21550D01*
X-21750Y14550D02*
Y14950D01*
X-22950Y13750D02*
X-22550D01*
X-22750Y13550D02*
Y13950D01*
X-21950Y15750D02*
X-21550D01*
X-21750Y15550D02*
Y15950D01*
X-21950Y7750D02*
X-21550D01*
X-21750Y7550D02*
Y7950D01*
X-22950Y6750D02*
X-22550D01*
X-22750Y6550D02*
Y6950D01*
X-21950Y8750D02*
X-21550D01*
X-21750Y8550D02*
Y8950D01*
X-22950Y15750D02*
X-22550D01*
X-22750Y15550D02*
Y15950D01*
X-10950Y18750D02*
X-10550D01*
X-10750Y18550D02*
Y18950D01*
X-10950Y17750D02*
X-10550D01*
X-10750Y17550D02*
Y17950D01*
X-15950Y17750D02*
X-15550D01*
X-15750Y17550D02*
Y17950D01*
X-17950Y18750D02*
X-17550D01*
X-17750Y18550D02*
Y18950D01*
X-17950Y17750D02*
X-17550D01*
X-17750Y17550D02*
Y17950D01*
X-19950Y17750D02*
X-19550D01*
X-19750Y17550D02*
Y17950D01*
X-14950Y5750D02*
X-14550D01*
X-14750Y5550D02*
Y5950D01*
X-14950Y4750D02*
X-14550D01*
X-14750Y4550D02*
Y4950D01*
X-13950Y4750D02*
X-13550D01*
X-13750Y4550D02*
Y4950D01*
X-21950Y12750D02*
X-21550D01*
X-21750Y12550D02*
Y12950D01*
X-12950Y17750D02*
X-12550D01*
X-12750Y17550D02*
Y17950D01*
X-21950Y9750D02*
X-21550D01*
X-21750Y9550D02*
Y9950D01*
X-22950Y11750D02*
X-22550D01*
X-22750Y11550D02*
Y11950D01*
X-22950Y8750D02*
X-22550D01*
X-22750Y8550D02*
Y8950D01*
X-9950Y18750D02*
X-9550D01*
X-9750Y18550D02*
Y18950D01*
X-18950Y18750D02*
X-18550D01*
X-18750Y18550D02*
Y18950D01*
X-20950Y4750D02*
X-20550D01*
X-20750Y4550D02*
Y4950D01*
X-20950Y5750D02*
X-20550D01*
X-20750Y5550D02*
Y5950D01*
X-19950Y4750D02*
X-19550D01*
X-19750Y4550D02*
Y4950D01*
X-19950Y5750D02*
X-19550D01*
X-19750Y5550D02*
Y5950D01*
X-17950Y4750D02*
X-17550D01*
X-17750Y4550D02*
Y4950D01*
X-17950Y5750D02*
X-17550D01*
X-17750Y5550D02*
Y5950D01*
X-16950Y4750D02*
X-16550D01*
X-16750Y4550D02*
Y4950D01*
X-16950Y5750D02*
X-16550D01*
X-16750Y5550D02*
Y5950D01*
X-7200Y9250D02*
X-6800D01*
X-7000Y9050D02*
Y9450D01*
X-7200Y10250D02*
X-6800D01*
X-7000Y10050D02*
Y10450D01*
X-27700Y5750D02*
X-27300D01*
X-27500Y5550D02*
Y5950D01*
X-26700Y5750D02*
X-26300D01*
X-26500Y5550D02*
Y5950D01*
X-27700Y11750D02*
X-27300D01*
X-27500Y11550D02*
Y11950D01*
X-25700Y11750D02*
X-25300D01*
X-25500Y11550D02*
Y11950D01*
X-27700Y9750D02*
X-27300D01*
X-27500Y9550D02*
Y9950D01*
X-27700Y7750D02*
X-27300D01*
X-27500Y7550D02*
Y7950D01*
X-27700Y8750D02*
X-27300D01*
X-27500Y8550D02*
Y8950D01*
X-26700Y11750D02*
X-26300D01*
X-26500Y11550D02*
Y11950D01*
X-5700Y10250D02*
X-5300D01*
X-5500Y10050D02*
Y10450D01*
X-5700Y9250D02*
X-5300D01*
X-5500Y9050D02*
Y9450D01*
X-4200Y10250D02*
X-3800D01*
X-4000Y10050D02*
Y10450D01*
X-4200Y9250D02*
X-3800D01*
X-4000Y9050D02*
Y9450D01*
X-52950Y23500D02*
X-52550D01*
X-52750Y23300D02*
Y23700D01*
X-21950Y10750D02*
X-21550D01*
X-21750Y10550D02*
Y10950D01*
X-22950Y9750D02*
X-22550D01*
X-22750Y9550D02*
Y9950D01*
X-27700Y19500D02*
X-27300D01*
X-27500Y19300D02*
Y19700D01*
X-27060Y16000D02*
X-26940D01*
X-27000Y15940D02*
Y16060D01*
X-26060Y16000D02*
X-25940D01*
X-26000Y15940D02*
Y16060D01*
X-26960Y11200D02*
X-26840D01*
X-26900Y11140D02*
Y11260D01*
X-28810Y11350D02*
X-28690D01*
X-28750Y11290D02*
Y11410D01*
X-10460Y9650D02*
X-10340D01*
X-10400Y9590D02*
Y9710D01*
X-28560Y3800D02*
X-28440D01*
X-28500Y3740D02*
Y3860D01*
X-28560Y4300D02*
X-28440D01*
X-28500Y4240D02*
Y4360D01*
X-29060Y3800D02*
X-28940D01*
X-29000Y3740D02*
Y3860D01*
X-29060Y4300D02*
X-28940D01*
X-29000Y4240D02*
Y4360D01*
X-27560Y3800D02*
X-27440D01*
X-27500Y3740D02*
Y3860D01*
X-27560Y4300D02*
X-27440D01*
X-27500Y4240D02*
Y4360D01*
X-28060Y3800D02*
X-27940D01*
X-28000Y3740D02*
Y3860D01*
X-28060Y4300D02*
X-27940D01*
X-28000Y4240D02*
Y4360D01*
X-33460Y7050D02*
X-33340D01*
X-33400Y6990D02*
Y7110D01*
X-33460Y7550D02*
X-33340D01*
X-33400Y7490D02*
Y7610D01*
X-33960Y7050D02*
X-33840D01*
X-33900Y6990D02*
Y7110D01*
X-33960Y7550D02*
X-33840D01*
X-33900Y7490D02*
Y7610D01*
X-32460Y7050D02*
X-32340D01*
X-32400Y6990D02*
Y7110D01*
X-32460Y7550D02*
X-32340D01*
X-32400Y7490D02*
Y7610D01*
X-32960Y7050D02*
X-32840D01*
X-32900Y6990D02*
Y7110D01*
X-32960Y7550D02*
X-32840D01*
X-32900Y7490D02*
Y7610D01*
X-57310Y10000D02*
X-57190D01*
X-57250Y9940D02*
Y10060D01*
X-51460Y11550D02*
X-51340D01*
X-51400Y11490D02*
Y11610D01*
X-28310Y14650D02*
X-28190D01*
X-28250Y14590D02*
Y14710D01*
X-23431Y20621D02*
X-23311D01*
X-23371Y20561D02*
Y20681D01*
X-47810Y21900D02*
X-47690D01*
X-47750Y21840D02*
Y21960D01*
X-40810Y8750D02*
X-40690D01*
X-40750Y8690D02*
Y8810D01*
X-40810Y7750D02*
X-40690D01*
X-40750Y7690D02*
Y7810D01*
X-16260Y6400D02*
X-16140D01*
X-16200Y6340D02*
Y6460D01*
X-19460Y16250D02*
X-19340D01*
X-19400Y16190D02*
Y16310D01*
X-19960Y16650D02*
X-19840D01*
X-19900Y16590D02*
Y16710D01*
X-13460Y12550D02*
X-13340D01*
X-13400Y12490D02*
Y12610D01*
X-29360Y22950D02*
X-29240D01*
X-29300Y22890D02*
Y23010D01*
X-25810Y22950D02*
X-25690D01*
X-25750Y22890D02*
Y23010D01*
X-27560Y22950D02*
X-27440D01*
X-27500Y22890D02*
Y23010D01*
X-16710Y13250D02*
X-16590D01*
X-16650Y13190D02*
Y13310D01*
X-17060Y11650D02*
X-16940D01*
X-17000Y11590D02*
Y11710D01*
X-33060Y17250D02*
X-32940D01*
X-33000Y17190D02*
Y17310D01*
X-33060Y17950D02*
X-32940D01*
X-33000Y17890D02*
Y18010D01*
X-32310Y17950D02*
X-32190D01*
X-32250Y17890D02*
Y18010D01*
X-34310Y15150D02*
X-34190D01*
X-34250Y15090D02*
Y15210D01*
X-33560Y15150D02*
X-33440D01*
X-33500Y15090D02*
Y15210D01*
X-27310Y950D02*
X-27190D01*
X-27250Y890D02*
Y1010D01*
X-25360Y7750D02*
X-25240D01*
X-25300Y7690D02*
Y7810D01*
X-15460Y12500D02*
X-15340D01*
X-15400Y12440D02*
Y12560D01*
X-5760Y21450D02*
X-5640D01*
X-5700Y21390D02*
Y21510D01*
X-11060Y19950D02*
X-10940D01*
X-11000Y19890D02*
Y20010D01*
X-8310Y19250D02*
X-8190D01*
X-8250Y19190D02*
Y19310D01*
X-17310Y20650D02*
X-17190D01*
X-17250Y20590D02*
Y20710D01*
X-17310Y19350D02*
X-17190D01*
X-17250Y19290D02*
Y19410D01*
X-16310Y19350D02*
X-16190D01*
X-16250Y19290D02*
Y19410D01*
X-16460Y20650D02*
X-16340D01*
X-16400Y20590D02*
Y20710D01*
X-36460Y23300D02*
X-36340D01*
X-36400Y23240D02*
Y23360D01*
X-34060Y23300D02*
X-33940D01*
X-34000Y23240D02*
Y23360D01*
X-36710Y22350D02*
X-36590D01*
X-36650Y22290D02*
Y22410D01*
X-33760Y22400D02*
X-33640D01*
X-33700Y22340D02*
Y22460D01*
X-34260Y12000D02*
X-34140D01*
X-34200Y11940D02*
Y12060D01*
X-33010Y12000D02*
X-32890D01*
X-32950Y11940D02*
Y12060D01*
X-29010Y17800D02*
X-28890D01*
X-28950Y17740D02*
Y17860D01*
X-31710Y12000D02*
X-31590D01*
X-31650Y11940D02*
Y12060D01*
X-30360Y12000D02*
X-30240D01*
X-30300Y11940D02*
Y12060D01*
X-6810Y6200D02*
X-6690D01*
X-6750Y6140D02*
Y6260D01*
X-5610Y7500D02*
X-5490D01*
X-5550Y7440D02*
Y7560D01*
X-6210Y6850D02*
X-6090D01*
X-6150Y6790D02*
Y6910D01*
X-6660Y21000D02*
X-6540D01*
X-6600Y20940D02*
Y21060D01*
X-1360Y21400D02*
X-1240D01*
X-1300Y21340D02*
Y21460D01*
X-8560Y22300D02*
X-8440D01*
X-8500Y22240D02*
Y22360D01*
X-16560Y16900D02*
X-16440D01*
X-16500Y16840D02*
Y16960D01*
X-6910Y22250D02*
X-6790D01*
X-6850Y22190D02*
Y22310D01*
X-3860Y19500D02*
X-3740D01*
X-3800Y19440D02*
Y19560D01*
X-3810Y17600D02*
X-3690D01*
X-3750Y17540D02*
Y17660D01*
X-7660Y24400D02*
X-7540D01*
X-7600Y24340D02*
Y24460D01*
X-3810Y15750D02*
X-3690D01*
X-3750Y15690D02*
Y15810D01*
X-3810Y13650D02*
X-3690D01*
X-3750Y13590D02*
Y13710D01*
X-3510Y11250D02*
X-3390D01*
X-3450Y11190D02*
Y11310D01*
X-5560Y12850D02*
X-5440D01*
X-5500Y12790D02*
Y12910D01*
X-13460Y13900D02*
X-13340D01*
X-13400Y13840D02*
Y13960D01*
X-16060Y9400D02*
X-15940D01*
X-16000Y9340D02*
Y9460D01*
X-17060Y11000D02*
X-16940D01*
X-17000Y10940D02*
Y11060D01*
X-16560Y21850D02*
X-16440D01*
X-16500Y21790D02*
Y21910D01*
X-11210Y22500D02*
X-11090D01*
X-11150Y22440D02*
Y22560D01*
X-20060Y21350D02*
X-19940D01*
X-20000Y21290D02*
Y21410D01*
X-20060Y21850D02*
X-19940D01*
X-20000Y21790D02*
Y21910D01*
X-20560Y21350D02*
X-20440D01*
X-20500Y21290D02*
Y21410D01*
X-20560Y21850D02*
X-20440D01*
X-20500Y21790D02*
Y21910D01*
X-19060Y21350D02*
X-18940D01*
X-19000Y21290D02*
Y21410D01*
X-19060Y21850D02*
X-18940D01*
X-19000Y21790D02*
Y21910D01*
X-19560Y21350D02*
X-19440D01*
X-19500Y21290D02*
Y21410D01*
X-19560Y21850D02*
X-19440D01*
X-19500Y21790D02*
Y21910D01*
X-35710Y700D02*
X-35590D01*
X-35650Y640D02*
Y760D01*
X-35710Y1200D02*
X-35590D01*
X-35650Y1140D02*
Y1260D01*
X-36210Y700D02*
X-36090D01*
X-36150Y640D02*
Y760D01*
X-36210Y1200D02*
X-36090D01*
X-36150Y1140D02*
Y1260D01*
X-34710Y700D02*
X-34590D01*
X-34650Y640D02*
Y760D01*
X-34710Y1200D02*
X-34590D01*
X-34650Y1140D02*
Y1260D01*
X-35210Y700D02*
X-35090D01*
X-35150Y640D02*
Y760D01*
X-35210Y1200D02*
X-35090D01*
X-35150Y1140D02*
Y1260D01*
X-54860Y14900D02*
X-54740D01*
X-54800Y14840D02*
Y14960D01*
X-54860Y15400D02*
X-54740D01*
X-54800Y15340D02*
Y15460D01*
X-55360Y14900D02*
X-55240D01*
X-55300Y14840D02*
Y14960D01*
X-55360Y15400D02*
X-55240D01*
X-55300Y15340D02*
Y15460D01*
X-53860Y14900D02*
X-53740D01*
X-53800Y14840D02*
Y14960D01*
X-53860Y15400D02*
X-53740D01*
X-53800Y15340D02*
Y15460D01*
X-54360Y14900D02*
X-54240D01*
X-54300Y14840D02*
Y14960D01*
X-54360Y15400D02*
X-54240D01*
X-54300Y15340D02*
Y15460D01*
X-53060Y9000D02*
X-52940D01*
X-53000Y8940D02*
Y9060D01*
X-52560Y9000D02*
X-52440D01*
X-52500Y8940D02*
Y9060D01*
X-53060Y9500D02*
X-52940D01*
X-53000Y9440D02*
Y9560D01*
X-52560Y9500D02*
X-52440D01*
X-52500Y9440D02*
Y9560D01*
X-53060Y8000D02*
X-52940D01*
X-53000Y7940D02*
Y8060D01*
X-52560Y8000D02*
X-52440D01*
X-52500Y7940D02*
Y8060D01*
X-53060Y8500D02*
X-52940D01*
X-53000Y8440D02*
Y8560D01*
X-52560Y8500D02*
X-52440D01*
X-52500Y8440D02*
Y8560D01*
X-38410Y13100D02*
X-38290D01*
X-38350Y13040D02*
Y13160D01*
X-38410Y12600D02*
X-38290D01*
X-38350Y12540D02*
Y12660D01*
X-37910Y13100D02*
X-37790D01*
X-37850Y13040D02*
Y13160D01*
X-37910Y12600D02*
X-37790D01*
X-37850Y12540D02*
Y12660D01*
X-39410Y13100D02*
X-39290D01*
X-39350Y13040D02*
Y13160D01*
X-39410Y12600D02*
X-39290D01*
X-39350Y12540D02*
Y12660D01*
X-38910Y13100D02*
X-38790D01*
X-38850Y13040D02*
Y13160D01*
X-38910Y12600D02*
X-38790D01*
X-38850Y12540D02*
Y12660D01*
X-55810Y700D02*
X-55690D01*
X-55750Y640D02*
Y760D01*
X-55810Y1200D02*
X-55690D01*
X-55750Y1140D02*
Y1260D01*
X-56310Y700D02*
X-56190D01*
X-56250Y640D02*
Y760D01*
X-56310Y1200D02*
X-56190D01*
X-56250Y1140D02*
Y1260D01*
X-54810Y700D02*
X-54690D01*
X-54750Y640D02*
Y760D01*
X-54810Y1200D02*
X-54690D01*
X-54750Y1140D02*
Y1260D01*
X-55310Y700D02*
X-55190D01*
X-55250Y640D02*
Y760D01*
X-55310Y1200D02*
X-55190D01*
X-55250Y1140D02*
Y1260D01*
X-46260Y700D02*
X-46140D01*
X-46200Y640D02*
Y760D01*
X-46260Y1200D02*
X-46140D01*
X-46200Y1140D02*
Y1260D01*
X-46760Y700D02*
X-46640D01*
X-46700Y640D02*
Y760D01*
X-46760Y1200D02*
X-46640D01*
X-46700Y1140D02*
Y1260D01*
X-45260Y700D02*
X-45140D01*
X-45200Y640D02*
Y760D01*
X-45260Y1200D02*
X-45140D01*
X-45200Y1140D02*
Y1260D01*
X-45760Y700D02*
X-45640D01*
X-45700Y640D02*
Y760D01*
X-45760Y1200D02*
X-45640D01*
X-45700Y1140D02*
Y1260D01*
X-1360Y7000D02*
X-1240D01*
X-1300Y6940D02*
Y7060D01*
X-860Y7000D02*
X-740D01*
X-800Y6940D02*
Y7060D01*
X-1360Y7500D02*
X-1240D01*
X-1300Y7440D02*
Y7560D01*
X-860Y7500D02*
X-740D01*
X-800Y7440D02*
Y7560D01*
X-1360Y6000D02*
X-1240D01*
X-1300Y5940D02*
Y6060D01*
X-860Y6000D02*
X-740D01*
X-800Y5940D02*
Y6060D01*
X-1360Y6500D02*
X-1240D01*
X-1300Y6440D02*
Y6560D01*
X-860Y6500D02*
X-740D01*
X-800Y6440D02*
Y6560D01*
X-1360Y15500D02*
X-1240D01*
X-1300Y15440D02*
Y15560D01*
X-860Y15500D02*
X-740D01*
X-800Y15440D02*
Y15560D01*
X-1360Y16000D02*
X-1240D01*
X-1300Y15940D02*
Y16060D01*
X-860Y16000D02*
X-740D01*
X-800Y15940D02*
Y16060D01*
X-1360Y14500D02*
X-1240D01*
X-1300Y14440D02*
Y14560D01*
X-860Y14500D02*
X-740D01*
X-800Y14440D02*
Y14560D01*
X-1360Y15000D02*
X-1240D01*
X-1300Y14940D02*
Y15060D01*
X-860Y15000D02*
X-740D01*
X-800Y14940D02*
Y15060D01*
X-2560Y25000D02*
X-2440D01*
X-2500Y24940D02*
Y25060D01*
X-2560Y24500D02*
X-2440D01*
X-2500Y24440D02*
Y24560D01*
X-2060Y25000D02*
X-1940D01*
X-2000Y24940D02*
Y25060D01*
X-2060Y24500D02*
X-1940D01*
X-2000Y24440D02*
Y24560D01*
X-3560Y25000D02*
X-3440D01*
X-3500Y24940D02*
Y25060D01*
X-3560Y24500D02*
X-3440D01*
X-3500Y24440D02*
Y24560D01*
X-3060Y25000D02*
X-2940D01*
X-3000Y24940D02*
Y25060D01*
X-3060Y24500D02*
X-2940D01*
X-3000Y24440D02*
Y24560D01*
X-29810Y25250D02*
X-29690D01*
X-29750Y25190D02*
Y25310D01*
X-29810Y24750D02*
X-29690D01*
X-29750Y24690D02*
Y24810D01*
X-29310Y25250D02*
X-29190D01*
X-29250Y25190D02*
Y25310D01*
X-29310Y24750D02*
X-29190D01*
X-29250Y24690D02*
Y24810D01*
X-30810Y25250D02*
X-30690D01*
X-30750Y25190D02*
Y25310D01*
X-30810Y24750D02*
X-30690D01*
X-30750Y24690D02*
Y24810D01*
X-30310Y25250D02*
X-30190D01*
X-30250Y25190D02*
Y25310D01*
X-30310Y24750D02*
X-30190D01*
X-30250Y24690D02*
Y24810D01*
X-41060Y18500D02*
X-40940D01*
X-41000Y18440D02*
Y18560D01*
X-41060Y18000D02*
X-40940D01*
X-41000Y17940D02*
Y18060D01*
X-40560Y18500D02*
X-40440D01*
X-40500Y18440D02*
Y18560D01*
X-40560Y18000D02*
X-40440D01*
X-40500Y17940D02*
Y18060D01*
X-42060Y18500D02*
X-41940D01*
X-42000Y18440D02*
Y18560D01*
X-42060Y18000D02*
X-41940D01*
X-42000Y17940D02*
Y18060D01*
X-41560Y18500D02*
X-41440D01*
X-41500Y18440D02*
Y18560D01*
X-41560Y18000D02*
X-41440D01*
X-41500Y17940D02*
Y18060D01*
X-51860Y18500D02*
X-51740D01*
X-51800Y18440D02*
Y18560D01*
X-51860Y18000D02*
X-51740D01*
X-51800Y17940D02*
Y18060D01*
X-51360Y18500D02*
X-51240D01*
X-51300Y18440D02*
Y18560D01*
X-51360Y18000D02*
X-51240D01*
X-51300Y17940D02*
Y18060D01*
X-52860Y18500D02*
X-52740D01*
X-52800Y18440D02*
Y18560D01*
X-52860Y18000D02*
X-52740D01*
X-52800Y17940D02*
Y18060D01*
X-52360Y18500D02*
X-52240D01*
X-52300Y18440D02*
Y18560D01*
X-52360Y18000D02*
X-52240D01*
X-52300Y17940D02*
Y18060D01*
X-63810Y25200D02*
X-63690D01*
X-63750Y25140D02*
Y25260D01*
X-63810Y24700D02*
X-63690D01*
X-63750Y24640D02*
Y24760D01*
X-63310Y25200D02*
X-63190D01*
X-63250Y25140D02*
Y25260D01*
X-63310Y24700D02*
X-63190D01*
X-63250Y24640D02*
Y24760D01*
X-64810Y25200D02*
X-64690D01*
X-64750Y25140D02*
Y25260D01*
X-64810Y24700D02*
X-64690D01*
X-64750Y24640D02*
Y24760D01*
X-64310Y25200D02*
X-64190D01*
X-64250Y25140D02*
Y25260D01*
X-64310Y24700D02*
X-64190D01*
X-64250Y24640D02*
Y24760D01*
X-46410Y7550D02*
X-46290D01*
X-46350Y7490D02*
Y7610D01*
X-46410Y7050D02*
X-46290D01*
X-46350Y6990D02*
Y7110D01*
X-45910Y7550D02*
X-45790D01*
X-45850Y7490D02*
Y7610D01*
X-45910Y7050D02*
X-45790D01*
X-45850Y6990D02*
Y7110D01*
X-47410Y7550D02*
X-47290D01*
X-47350Y7490D02*
Y7610D01*
X-47410Y7050D02*
X-47290D01*
X-47350Y6990D02*
Y7110D01*
X-46910Y7550D02*
X-46790D01*
X-46850Y7490D02*
Y7610D01*
X-46910Y7050D02*
X-46790D01*
X-46850Y6990D02*
Y7110D01*
X-30910Y15400D02*
X-30790D01*
X-30850Y15340D02*
Y15460D01*
X-29010Y15550D02*
X-28890D01*
X-28950Y15490D02*
Y15610D01*
X-17810Y13250D02*
X-17690D01*
X-17750Y13190D02*
Y13310D01*
X-17747Y12213D02*
X-17627D01*
X-17687Y12153D02*
Y12273D01*
X-7310Y20750D02*
X-7190D01*
X-7250Y20690D02*
Y20810D01*
X-32500Y13450D02*
X-32380D01*
X-32440Y13390D02*
Y13510D01*
X-32820Y13450D02*
X-32700D01*
X-32760Y13390D02*
Y13510D01*
X-28810Y12450D02*
X-28690D01*
X-28750Y12390D02*
Y12510D01*
X-40420Y14450D02*
X-40300D01*
X-40360Y14390D02*
Y14510D01*
X-41380Y14450D02*
X-41260D01*
X-41320Y14390D02*
Y14510D01*
X-26160Y3250D02*
X-26040D01*
X-26100Y3190D02*
Y3310D01*
X-35010Y6230D02*
X-34890D01*
X-34950Y6170D02*
Y6290D01*
X-35660Y6230D02*
X-35540D01*
X-35600Y6170D02*
Y6290D01*
X-29460Y8600D02*
X-29340D01*
X-29400Y8540D02*
Y8660D01*
X-29710Y14250D02*
X-29590D01*
X-29650Y14190D02*
Y14310D01*
X-10910Y13499D02*
X-10790D01*
X-10850Y13439D02*
Y13559D01*
X-25310Y19050D02*
X-25190D01*
X-25250Y18990D02*
Y19110D01*
X-25060Y18850D02*
X-24940D01*
X-25000Y18790D02*
Y18910D01*
X-24660Y22800D02*
X-24540D01*
X-24600Y22740D02*
Y22860D01*
X-27110Y21100D02*
X-26990D01*
X-27050Y21040D02*
Y21160D01*
X-13290Y16520D02*
X-13170D01*
X-13230Y16460D02*
Y16580D01*
X-14810Y11350D02*
X-14690D01*
X-14750Y11290D02*
Y11410D01*
X-13460Y11300D02*
X-13340D01*
X-13400Y11240D02*
Y11360D01*
X-58060Y17750D02*
X-57940D01*
X-58000Y17690D02*
Y17810D01*
X-35260Y23750D02*
X-35140D01*
X-35200Y23690D02*
Y23810D01*
X-28810Y11590D02*
X-28690D01*
X-28750Y11530D02*
Y11650D01*
X-35310Y6230D02*
X-35190D01*
X-35250Y6170D02*
Y6290D01*
X-25710Y7750D02*
X-25590D01*
X-25650Y7690D02*
Y7810D01*
X-40810Y9500D02*
X-40690D01*
X-40750Y9440D02*
Y9560D01*
X-40310Y10750D02*
X-40190D01*
X-40250Y10690D02*
Y10810D01*
X-48310Y10250D02*
X-48190D01*
X-48250Y10190D02*
Y10310D01*
X-46710Y21900D02*
X-46590D01*
X-46650Y21840D02*
Y21960D01*
X-47060Y21900D02*
X-46940D01*
X-47000Y21840D02*
Y21960D01*
X-55310Y23000D02*
X-55190D01*
X-55250Y22940D02*
Y23060D01*
X-27310Y570D02*
X-27190D01*
X-27250Y510D02*
Y630D01*
X-30460Y15400D02*
X-30340D01*
X-30400Y15340D02*
Y15460D01*
X-36560Y15950D02*
X-36440D01*
X-36500Y15890D02*
Y16010D01*
X-33910Y15150D02*
X-33790D01*
X-33850Y15090D02*
Y15210D01*
X-50560Y9250D02*
X-50440D01*
X-50500Y9190D02*
Y9310D01*
X-5285Y18625D02*
X-5165D01*
X-5225Y18565D02*
Y18685D01*
X-6310Y13250D02*
X-6190D01*
X-6250Y13190D02*
Y13310D01*
X-17560Y9750D02*
X-17440D01*
X-17500Y9690D02*
Y9810D01*
X-17310Y12650D02*
X-17190D01*
X-17250Y12590D02*
Y12710D01*
X-16210Y12250D02*
X-16090D01*
X-16150Y12190D02*
Y12310D01*
X-16110Y10250D02*
X-15990D01*
X-16050Y10190D02*
Y10310D01*
X-5560Y8500D02*
X-5440D01*
X-5500Y8440D02*
Y8560D01*
X-29410Y14250D02*
X-29290D01*
X-29350Y14190D02*
Y14310D01*
X-29700Y8600D02*
X-29580D01*
X-29640Y8540D02*
Y8660D01*
X-40900Y14450D02*
X-40780D01*
X-40840Y14390D02*
Y14510D01*
X-28810Y12850D02*
X-28690D01*
X-28750Y12790D02*
Y12910D01*
X-33140Y13450D02*
X-33020D01*
X-33080Y13390D02*
Y13510D01*
X-12310Y15250D02*
X-12190D01*
X-12250Y15190D02*
Y15310D01*
X-18360Y20650D02*
X-18240D01*
X-18300Y20590D02*
Y20710D01*
X-21660Y20650D02*
X-21540D01*
X-21600Y20590D02*
Y20710D01*
X-52310Y11500D02*
X-52190D01*
X-52250Y11440D02*
Y11560D01*
X-51810Y11250D02*
X-51690D01*
X-51750Y11190D02*
Y11310D01*
X-52560Y11000D02*
X-52440D01*
X-52500Y10940D02*
Y11060D01*
X-52310Y11000D02*
X-52190D01*
X-52250Y10940D02*
Y11060D01*
X-58060Y16500D02*
X-57940D01*
X-58000Y16440D02*
Y16560D01*
X-58260Y19750D02*
X-58140D01*
X-58200Y19690D02*
Y19810D01*
X-58260Y18750D02*
X-58140D01*
X-58200Y18690D02*
Y18810D01*
X-5510Y20350D02*
X-5390D01*
X-5450Y20290D02*
Y20410D01*
X-9660Y21500D02*
X-9540D01*
X-9600Y21440D02*
Y21560D01*
X-8310Y9500D02*
X-8190D01*
X-8250Y9440D02*
Y9560D01*
X-18110Y13700D02*
X-17990D01*
X-18050Y13640D02*
Y13760D01*
X-18110Y13950D02*
X-17990D01*
X-18050Y13890D02*
Y14010D01*
X-10310Y19550D02*
X-10190D01*
X-10250Y19490D02*
Y19610D01*
X-25710Y20350D02*
X-25590D01*
X-25650Y20290D02*
Y20410D01*
X-25860Y20750D02*
X-25740D01*
X-25800Y20690D02*
Y20810D01*
X-6060Y7500D02*
X-5940D01*
X-6000Y7440D02*
Y7560D01*
X-6310Y7450D02*
X-6190D01*
X-6250Y7390D02*
Y7510D01*
X-6560Y7250D02*
X-6440D01*
X-6500Y7190D02*
Y7310D01*
X-15310Y13750D02*
X-15190D01*
X-15250Y13690D02*
Y13810D01*
X-15560Y13750D02*
X-15440D01*
X-15500Y13690D02*
Y13810D01*
X-25310Y21000D02*
X-25190D01*
X-25250Y20940D02*
Y21060D01*
X-25110Y21250D02*
X-24990D01*
X-25050Y21190D02*
Y21310D01*
X-28060Y16750D02*
X-27940D01*
X-28000Y16690D02*
Y16810D01*
X-26327Y20233D02*
X-26207D01*
X-26267Y20173D02*
Y20293D01*
X-26761Y2264D02*
X-26611D01*
X-26686Y2189D02*
Y2339D01*
X-13310Y9500D02*
X-13190D01*
X-13250Y9440D02*
Y9560D01*
X-13310Y9750D02*
X-13190D01*
X-13250Y9690D02*
Y9810D01*
X-13460Y10400D02*
X-13340D01*
X-13400Y10340D02*
Y10460D01*
X-13285Y10175D02*
X-13165D01*
X-13225Y10115D02*
Y10235D01*
X-24943Y5733D02*
X-24823D01*
X-24883Y5673D02*
Y5793D01*
X-24860Y4150D02*
X-24740D01*
X-24800Y4090D02*
Y4210D01*
X-24610Y4150D02*
X-24490D01*
X-24550Y4090D02*
Y4210D01*
X-24610Y4400D02*
X-24490D01*
X-24550Y4340D02*
Y4460D01*
X-24360Y4400D02*
X-24240D01*
X-24300Y4340D02*
Y4460D01*
X-24460Y5150D02*
X-24340D01*
X-24400Y5090D02*
Y5210D01*
X-24460Y5400D02*
X-24340D01*
X-24400Y5340D02*
Y5460D01*
X-24960Y11250D02*
X-24840D01*
X-24900Y11190D02*
Y11310D01*
X-25210Y11250D02*
X-25090D01*
X-25150Y11190D02*
Y11310D01*
X-39260Y11050D02*
X-39140D01*
X-39200Y10990D02*
Y11110D01*
X-39560Y11050D02*
X-39440D01*
X-39500Y10990D02*
Y11110D01*
X-39960Y10350D02*
X-39840D01*
X-39900Y10290D02*
Y10410D01*
X-27410Y20600D02*
X-27290D01*
X-27350Y20540D02*
Y20660D01*
X-27060Y20500D02*
X-26940D01*
X-27000Y20440D02*
Y20560D01*
X-26810Y21050D02*
X-26690D01*
X-26750Y20990D02*
Y21110D01*
X-26560Y21050D02*
X-26440D01*
X-26500Y20990D02*
Y21110D01*
X-26560Y20500D02*
X-26440D01*
X-26500Y20440D02*
Y20560D01*
X-29110Y19250D02*
X-28990D01*
X-29050Y19190D02*
Y19310D01*
X-27910Y18350D02*
X-27790D01*
X-27850Y18290D02*
Y18410D01*
X-25310Y16250D02*
X-25190D01*
X-25250Y16190D02*
Y16310D01*
X-26710Y20300D02*
X-26590D01*
X-26650Y20240D02*
Y20360D01*
X-22660Y22600D02*
X-22540D01*
X-22600Y22540D02*
Y22660D01*
X-24513Y21703D02*
X-24393D01*
X-24453Y21643D02*
Y21763D01*
X-24460Y21400D02*
X-24340D01*
X-24400Y21340D02*
Y21460D01*
X-24085Y18850D02*
X-23965D01*
X-24025Y18790D02*
Y18910D01*
X-20810Y22900D02*
X-20690D01*
X-20750Y22840D02*
Y22960D01*
X-25860Y18000D02*
X-25740D01*
X-25800Y17940D02*
Y18060D01*
X-26060Y16750D02*
X-25940D01*
X-26000Y16690D02*
Y16810D01*
X-3060Y21250D02*
X-2940D01*
X-3000Y21190D02*
Y21310D01*
X-5510Y15800D02*
X-5390D01*
X-5450Y15740D02*
Y15860D01*
X-42460Y13800D02*
X-42340D01*
X-42400Y13740D02*
Y13860D01*
X-44560Y14100D02*
X-44440D01*
X-44500Y14040D02*
Y14160D01*
X-46360Y14100D02*
X-46240D01*
X-46300Y14040D02*
Y14160D01*
X-48210Y14050D02*
X-48090D01*
X-48150Y13990D02*
Y14110D01*
X-32310Y17250D02*
X-32190D01*
X-32250Y17190D02*
Y17310D01*
X-35460Y17500D02*
X-35340D01*
X-35400Y17440D02*
Y17560D01*
X-36810Y18000D02*
X-36690D01*
X-36750Y17940D02*
Y18060D01*
X-33785Y17625D02*
X-33665D01*
X-33725Y17565D02*
Y17685D01*
X-33685Y15975D02*
X-33565D01*
X-33625Y15915D02*
Y16035D01*
X-58310Y8250D02*
X-58190D01*
X-58250Y8190D02*
Y8310D01*
X-57310Y8750D02*
X-57190D01*
X-57250Y8690D02*
Y8810D01*
X-59560Y8750D02*
X-59440D01*
X-59500Y8690D02*
Y8810D01*
X-60060Y9250D02*
X-59940D01*
X-60000Y9190D02*
Y9310D01*
X-60060Y4500D02*
X-59940D01*
X-60000Y4440D02*
Y4560D01*
X-10410Y10750D02*
X-10290D01*
X-10350Y10690D02*
Y10810D01*
X-5810Y8250D02*
X-5690D01*
X-5750Y8190D02*
Y8310D01*
X-5810Y8000D02*
X-5690D01*
X-5750Y7940D02*
Y8060D01*
X-8060Y10250D02*
X-7940D01*
X-8000Y10190D02*
Y10310D01*
X-7810Y9500D02*
X-7690D01*
X-7750Y9440D02*
Y9560D01*
X-7560Y14250D02*
X-7440D01*
X-7500Y14190D02*
Y14310D01*
X-7310Y15000D02*
X-7190D01*
X-7250Y14940D02*
Y15060D01*
X-17310Y23000D02*
X-17190D01*
X-17250Y22940D02*
Y23060D01*
X-19310Y22500D02*
X-19190D01*
X-19250Y22440D02*
Y22560D01*
X-18810Y22700D02*
X-18690D01*
X-18750Y22640D02*
Y22760D01*
X-23310Y6000D02*
X-23190D01*
X-23250Y5940D02*
Y6060D01*
X-45810Y21900D02*
X-45690D01*
X-45750Y21840D02*
Y21960D01*
X-46210Y21900D02*
X-46090D01*
X-46150Y21840D02*
Y21960D01*
X-27310Y18450D02*
X-27190D01*
X-27250Y18390D02*
Y18510D01*
X-26760Y10150D02*
X-26640D01*
X-26700Y10090D02*
Y10210D01*
X-26960Y10350D02*
X-26840D01*
X-26900Y10290D02*
Y10410D01*
X-16860Y9400D02*
X-16740D01*
X-16800Y9340D02*
Y9460D01*
M02*
